<svg version="1.1" id="Layer_1" xmlns="http://www.w3.org/2000/svg" xmlns:xlink="http://www.w3.org/1999/xlink" x="0px" y="0px"
	 width="100%" viewBox="0 0 870 470" enable-background="new 0 0 870 470" xml:space="preserve">
<path fill="#FFFFFF" opacity="1.000000" stroke="none" 
	d="
M574.000000,471.000000 
	C382.666687,471.000000 191.833405,471.000000 1.000077,471.000000 
	C1.000051,314.333405 1.000051,157.666794 1.000026,1.000140 
	C290.999878,1.000093 580.999756,1.000093 870.999756,1.000047 
	C870.999817,157.666519 870.999817,314.333038 870.999878,470.999786 
	C772.166687,471.000000 673.333313,471.000000 574.000000,471.000000 
M319.937988,70.652298 
	C307.816467,75.483757 295.690552,80.304260 283.589447,85.186272 
	C283.098785,85.384216 282.842407,86.162788 282.327423,86.715622 
	C282.327423,86.715622 282.269897,86.860680 281.563232,86.796043 
	C281.102570,87.213257 280.641907,87.630478 279.798187,88.646584 
	C279.215118,89.843079 278.570374,91.013771 278.057953,92.239784 
	C258.418121,139.231155 238.756485,186.213531 219.280807,233.272858 
	C218.471741,235.227859 218.795898,238.163544 219.638107,240.212387 
	C229.951630,265.301910 240.444641,290.317810 250.923981,315.338989 
	C260.695923,338.671112 270.507141,361.986786 280.314545,385.664734 
	C280.314545,385.664734 280.617737,385.870209 280.617737,385.870209 
	C280.617737,385.870209 280.941742,385.696350 281.378967,386.277069 
	C282.085724,386.702728 282.750916,387.229401 283.505157,387.539581 
	C331.840393,407.416962 380.169983,427.308319 428.569763,447.027435 
	C430.591949,447.851318 433.512543,447.684509 435.608887,446.897919 
	C443.862030,443.801178 451.949615,440.263885 460.104492,436.904297 
	C500.415436,420.297211 540.728271,403.694733 581.719360,386.935822 
	C583.124878,384.734100 584.885742,382.681793 585.883484,380.308624 
	C605.366943,333.965942 624.739441,287.576569 644.220764,241.232941 
	C645.607422,237.934113 645.652710,235.081848 644.241760,231.736099 
	C628.719116,194.927521 613.371704,158.045090 597.880005,121.223366 
	C593.114929,109.897629 588.054688,98.696075 583.096313,87.359894 
	C583.096313,87.359894 583.004944,87.331322 582.687439,86.653564 
	C580.586060,85.665794 578.522156,84.586838 576.377686,83.703690 
	C530.244324,64.705055 484.086334,45.766212 437.989227,26.680204 
	C434.012604,25.033720 430.607910,24.891228 426.579285,26.582458 
	C405.419647,35.465340 384.133301,44.045723 362.930237,52.826042 
	C348.816284,58.670723 334.768097,64.674332 319.937988,70.652298 
z"/>
<path fill="#E32129" opacity="1.000000" stroke="none" 
	d="
M280.301056,385.309692 
	C270.507141,361.986786 260.695923,338.671112 250.923981,315.338989 
	C240.444641,290.317810 229.951630,265.301910 219.638107,240.212387 
	C218.795898,238.163544 218.471741,235.227859 219.280807,233.272858 
	C238.756485,186.213531 258.418121,139.231155 278.057953,92.239784 
	C278.570374,91.013771 279.215118,89.843079 280.242737,88.378357 
	C281.023285,88.148323 281.359222,88.186516 281.787842,88.584984 
	C295.766785,125.620323 309.626953,162.305313 323.553955,198.964920 
	C328.253448,211.335205 333.122284,223.641113 338.013397,236.233047 
	C338.092499,236.671814 338.071930,236.853973 337.746887,237.216965 
	C337.004852,238.288269 336.493011,239.150375 336.140533,240.073334 
	C326.693085,264.811554 317.219269,289.539856 307.847931,314.306915 
	C303.750732,325.135223 299.868744,336.044983 295.623901,347.150452 
	C290.577820,359.918823 285.796875,372.454498 281.007965,384.995209 
	C281.000000,385.000244 280.989014,385.015594 280.804535,385.059937 
	C280.620056,385.104279 280.301056,385.309692 280.301056,385.309692 
z"/>
<path fill="#E77027" opacity="1.000000" stroke="none" 
	d="
M583.129517,87.437653 
	C588.054688,98.696075 593.114929,109.897629 597.880005,121.223366 
	C613.371704,158.045090 628.719116,194.927521 644.241760,231.736099 
	C645.652710,235.081848 645.607422,237.934113 644.220764,241.232941 
	C624.739441,287.576569 605.366943,333.965942 585.883484,380.308624 
	C584.885742,382.681793 583.124878,384.734100 581.350098,386.709290 
	C580.939880,386.077850 580.898865,385.672913 581.142822,384.998901 
	C581.431213,383.467651 581.793396,382.072815 581.383301,380.963501 
	C576.378113,367.423615 571.356323,353.888123 566.149719,340.424683 
	C555.797913,313.656799 545.328796,286.934235 534.906433,260.193634 
	C531.901245,252.483276 528.890076,244.775238 525.821533,236.770782 
	C525.701599,236.283630 525.641663,236.091827 525.753052,235.570190 
	C526.610352,233.728439 527.375977,232.247101 527.970642,230.700043 
	C539.657166,200.297531 551.307739,169.881195 563.000671,139.481155 
	C569.678040,122.120934 576.417847,104.784698 583.129517,87.437653 
z"/>
<path fill="#E32129" opacity="1.000000" stroke="none" 
	d="
M580.857788,385.267975 
	C580.898865,385.672913 580.939880,386.077850 581.010681,386.786713 
	C540.728271,403.694733 500.415436,420.297211 460.104492,436.904297 
	C451.949615,440.263885 443.862030,443.801178 435.608887,446.897919 
	C433.512543,447.684509 430.591949,447.851318 428.569763,447.027435 
	C380.169983,427.308319 331.840393,407.416962 283.505157,387.539581 
	C282.750916,387.229401 282.085724,386.702728 281.222137,385.819824 
	C281.065308,385.362610 280.989014,385.015594 280.989014,385.015594 
	C280.989014,385.015594 281.000000,385.000244 281.403748,385.059235 
	C282.632721,385.034424 283.523376,385.124359 284.273590,384.841583 
	C309.574127,375.305176 334.861359,365.733368 360.521454,356.137451 
	C369.073578,353.142761 377.288513,350.266144 385.421356,347.173706 
	C389.371552,345.671692 393.168152,343.765839 397.421265,342.041534 
	C409.037079,337.899658 420.265961,333.759094 431.657349,329.572601 
	C432.049591,329.495270 432.270325,329.526794 432.834106,329.828674 
	C434.391235,330.603180 435.562378,331.261536 436.806305,331.724213 
	C484.819336,349.583313 532.838989,367.424438 580.857788,385.267975 
z"/>
<path fill="#F1B41B" opacity="1.000000" stroke="none" 
	d="
M337.913727,235.976456 
	C333.122284,223.641113 328.253448,211.335205 323.553955,198.964920 
	C309.626953,162.305313 295.766785,125.620323 281.932831,88.243469 
	C282.080109,87.314667 282.175018,87.087669 282.269897,86.860680 
	C282.269897,86.860680 282.327423,86.715622 282.700073,86.979416 
	C287.365692,88.518417 291.658661,89.793617 296.167206,91.337029 
	C299.255920,92.731087 302.129028,93.856934 305.000244,94.992355 
	C304.998322,95.001945 305.017426,94.997810 305.180511,95.240952 
	C305.892212,95.644173 306.440826,95.804245 307.235840,96.003662 
	C307.482269,96.043007 307.979706,96.083519 308.203369,96.334442 
	C310.641418,97.106911 312.855743,97.628456 315.303406,98.055176 
	C315.969849,97.707466 316.403015,97.454590 316.864319,97.559616 
	C318.163269,99.051270 319.254517,100.623703 320.740479,101.232025 
	C324.398254,102.729462 328.237518,103.783714 332.327454,105.171829 
	C335.417694,106.252937 338.184265,107.178406 341.173981,108.362572 
	C343.593384,109.420326 345.789642,110.219391 347.992920,111.010223 
	C348.000000,111.001976 347.987549,111.013496 348.216614,111.283188 
	C356.618256,114.395920 364.790894,117.238960 373.138092,120.319168 
	C373.869690,120.706100 374.426666,120.855850 375.212433,121.274948 
	C377.285431,122.044693 379.129700,122.545090 380.990509,123.029114 
	C381.007080,123.012733 380.964874,123.028168 381.068909,123.248894 
	C381.382629,123.739235 381.655457,123.904884 382.234131,123.986618 
	C382.476868,124.006676 382.963928,124.014557 383.191956,124.283691 
	C390.598083,127.068314 397.776154,129.583801 405.180878,132.353851 
	C406.934479,133.086166 408.461456,133.563919 410.162781,134.279526 
	C410.892212,134.679886 411.447327,134.842392 412.306702,135.152954 
	C414.071472,135.867950 415.532013,136.434891 417.202362,137.260849 
	C418.274872,137.681473 419.137543,137.843094 420.226257,138.026031 
	C420.452301,138.047333 420.906342,138.043640 421.093994,138.284866 
	C421.857544,138.689972 422.433411,138.853836 423.232208,139.048126 
	C423.455109,139.078568 423.901489,139.135147 424.095978,139.425140 
	C426.880737,140.796417 429.470978,141.877701 432.109650,143.145996 
	C432.158051,143.332993 432.104095,143.715546 431.775085,143.848724 
	C415.459229,159.736221 399.483887,175.502228 383.482208,191.241455 
	C368.307068,206.167725 353.104340,221.065918 337.913727,235.976456 
z"/>
<path fill="#3B2F7C" opacity="1.000000" stroke="none" 
	d="
M432.104095,143.715546 
	C432.104095,143.715546 432.158051,143.332993 432.471130,143.114517 
	C439.451752,140.341599 446.103668,137.745575 452.789337,135.239609 
	C489.631592,121.430084 526.468872,107.606934 563.342285,93.881004 
	C569.812622,91.472435 576.446533,89.503357 583.004944,87.331314 
	C583.004944,87.331322 583.096313,87.359894 583.112915,87.398773 
	C576.417847,104.784698 569.678040,122.120934 563.000671,139.481155 
	C551.307739,169.881195 539.657166,200.297531 527.970642,230.700043 
	C527.375977,232.247101 526.610352,233.728439 525.518005,235.395615 
	C514.102234,224.689224 503.088501,213.831909 492.084259,202.965012 
	C472.087891,183.218216 452.097168,163.465683 432.104095,143.715546 
z"/>
<path fill="#E77027" opacity="1.000000" stroke="none" 
	d="
M582.846191,86.992432 
	C576.446533,89.503357 569.812622,91.472435 563.342285,93.881004 
	C526.468872,107.606934 489.631592,121.430084 452.789337,135.239609 
	C446.103668,137.745575 439.451752,140.341599 432.422729,142.927521 
	C429.470978,141.877701 426.880737,140.796417 424.351715,139.122665 
	C427.674530,137.639603 431.055115,135.709595 434.173859,136.066650 
	C441.515594,136.907181 448.144470,135.800385 454.925171,131.622223 
	C450.095581,130.489456 444.874054,130.800461 442.361694,125.862823 
	C445.748901,126.651550 448.892731,124.597130 452.620331,127.530365 
	C457.845795,131.642273 458.586426,130.701065 462.285431,128.321365 
	C458.700256,126.870476 455.542755,125.592667 452.385254,124.314857 
	C452.470581,124.007736 452.555908,123.700615 452.641235,123.393494 
	C457.463196,123.393494 462.285126,123.393494 467.183929,123.393494 
	C467.801178,124.545570 468.453979,125.763962 469.074951,126.922943 
	C472.852356,125.725197 476.632751,125.220436 479.614624,123.404411 
	C483.298401,121.160896 487.552124,118.394508 489.214325,114.776558 
	C490.426819,112.137451 490.641602,110.337685 493.833435,109.923424 
	C496.313782,109.601494 498.706146,108.602005 501.137634,107.903664 
	C501.286682,108.324669 501.435699,108.745682 501.584717,109.166687 
	C500.455231,109.775360 499.325714,110.384033 498.196228,110.992706 
	C498.132416,111.530014 498.068634,112.067329 498.004852,112.604645 
	C499.990814,113.194008 502.235413,114.682983 503.913208,114.200584 
	C508.564819,112.863174 513.006531,110.765686 517.479248,108.847458 
	C520.125183,107.712662 522.961792,106.720901 525.190674,104.991943 
	C527.913452,102.879868 530.089172,100.062553 532.806946,97.232033 
	C534.379395,99.469444 535.266907,100.732300 536.156006,101.997437 
	C542.615967,100.476669 546.880615,93.730675 554.417542,95.983826 
	C554.427185,95.425514 554.436829,94.867203 554.446472,94.308899 
	C551.402710,93.598923 548.358948,92.888947 544.820557,92.063591 
	C548.528625,88.300903 551.422852,91.204041 554.237854,92.166565 
	C558.652771,93.676117 560.274719,92.877075 560.788574,87.821266 
	C563.659241,88.008476 566.552917,88.197174 569.715210,88.403397 
	C569.495300,87.791435 569.462708,86.954735 569.071777,86.723221 
	C561.346130,82.148224 553.603149,77.600708 545.801758,73.156334 
	C544.007751,72.134270 542.014465,71.430634 540.060303,70.726509 
	C533.814636,68.476120 527.596069,65.110710 521.103882,70.219482 
	C520.402893,70.771057 518.886230,71.232071 518.381226,70.864655 
	C517.625793,70.315056 517.432434,68.992943 517.380615,67.993744 
	C520.043640,67.127434 522.326050,66.266785 524.608521,65.406136 
	C524.446411,64.910851 524.284302,64.415573 524.122192,63.920296 
	C521.748169,64.280296 519.374084,64.640305 516.990417,64.616631 
	C516.872803,63.748848 516.915771,62.967373 516.634399,62.824490 
	C510.885895,59.905247 505.105682,57.047886 499.300018,54.244019 
	C499.095123,54.145061 498.564117,54.721416 498.015076,55.100376 
	C499.446533,57.112740 500.805634,59.023350 502.164703,60.933964 
	C501.870850,61.246086 501.576996,61.558212 501.283173,61.870335 
	C497.743225,59.959858 494.203308,58.049381 490.576447,56.091976 
	C490.872223,54.854679 491.238281,53.323505 491.856445,50.737682 
	C489.442444,51.826561 488.220184,52.377884 486.529144,53.140663 
	C486.282501,46.382065 480.208313,45.312408 476.806030,45.497753 
	C470.527435,45.839802 467.259216,41.780777 461.773102,39.146683 
	C460.498993,40.540943 458.764191,42.284172 457.224945,44.185711 
	C456.387939,45.219711 455.883301,46.522728 455.228729,47.704407 
	C454.152435,46.511566 452.940582,45.409874 452.053040,44.090084 
	C451.559052,43.355461 451.605194,42.257580 451.431152,41.433659 
	C449.519409,41.068844 447.902374,40.760269 446.285370,40.451698 
	C446.260773,39.996902 446.236176,39.542103 446.211578,39.087307 
	C448.661407,38.121536 451.111237,37.155766 453.921600,36.047871 
	C450.955078,34.686802 448.477997,33.550301 446.025665,32.425156 
	C444.922333,33.259613 443.822449,34.091469 442.420868,35.151497 
	C441.455322,33.102856 440.735840,31.576302 440.026306,30.070845 
	C432.742554,33.097618 432.105865,32.932171 430.008942,27.475494 
	C427.337524,28.651176 424.668762,29.825695 421.680054,31.140602 
	C418.479553,32.613293 415.479614,33.748505 412.782013,35.382790 
	C411.813141,35.969734 411.572815,37.759186 410.785980,39.253624 
	C408.071014,39.455639 405.529266,39.104778 403.080780,39.438297 
	C400.748108,39.756046 398.512726,40.787880 395.510590,41.733906 
	C398.695831,43.386406 400.786713,44.471149 402.877594,45.555897 
	C402.666443,46.010704 402.455292,46.465508 402.244141,46.920311 
	C398.206421,45.797810 393.900085,43.254620 390.206604,43.952900 
	C386.522491,44.649403 383.452606,48.594608 379.701843,51.426250 
	C369.224121,46.265175 369.464874,54.729786 369.393097,60.489616 
	C365.506561,60.070858 362.466003,59.549400 359.414062,59.471413 
	C356.615356,59.399895 353.804352,59.806824 350.632172,60.041313 
	C346.609344,61.959263 342.953094,63.838848 339.296875,65.718437 
	C339.424683,66.145729 339.552490,66.573013 339.680298,67.000305 
	C341.453522,67.000305 343.226776,67.000305 345.039673,67.360809 
	C347.271515,69.495415 349.463715,71.269508 351.655884,73.043610 
	C351.490753,73.449242 351.325623,73.854874 351.160461,74.260506 
	C346.020172,72.709885 340.879913,71.159271 335.434601,69.516647 
	C335.419891,69.238625 335.365448,68.210793 335.304657,67.062927 
	C330.287079,68.472137 325.666687,69.769814 320.956604,70.952866 
	C320.866974,70.838249 320.690491,70.606819 320.690491,70.606812 
	C334.768097,64.674332 348.816284,58.670723 362.930237,52.826042 
	C384.133301,44.045723 405.419647,35.465340 426.579285,26.582458 
	C430.607910,24.891228 434.012604,25.033720 437.989227,26.680204 
	C484.086334,45.766212 530.244324,64.705055 576.377686,83.703690 
	C578.522156,84.586838 580.586060,85.665794 582.846191,86.992432 
M573.097412,87.732216 
	C573.042419,87.232376 572.987488,86.732544 572.932495,86.232697 
	C572.484741,86.347687 572.036987,86.462685 571.589233,86.577682 
	C571.892273,87.004448 572.195251,87.431221 573.097412,87.732216 
z"/>
<path fill="#E77027" opacity="1.000000" stroke="none" 
	d="
M295.951630,91.068810 
	C291.658661,89.793617 287.365692,88.518417 282.774811,86.957031 
	C282.842407,86.162788 283.098785,85.384216 283.589447,85.186272 
	C295.690552,80.304260 307.816467,75.483757 320.314240,70.629562 
	C320.690491,70.606819 320.866974,70.838249 320.772888,71.249939 
	C313.930054,75.199097 307.181305,78.736572 299.472656,82.777206 
	C301.325134,84.221191 303.144531,85.548988 304.843750,87.016037 
	C305.391785,87.489220 305.623566,88.328697 305.621490,88.995232 
	C300.247101,88.896706 296.917450,83.215591 291.633392,83.642082 
	C293.425964,86.651619 294.718018,88.820778 295.994629,91.009026 
	C295.979187,91.028107 295.951630,91.068810 295.951630,91.068810 
z"/>
<path fill="#E77027" opacity="1.000000" stroke="none" 
	d="
M281.916565,86.828362 
	C282.175018,87.087669 282.080109,87.314667 281.840210,87.883194 
	C281.359222,88.186516 281.023285,88.148323 280.434265,88.078918 
	C280.641907,87.630478 281.102570,87.213257 281.916565,86.828362 
z"/>
<path fill="#F2B31D" opacity="1.000000" stroke="none" 
	d="
M280.804535,385.059937 
	C280.989014,385.015594 281.065308,385.362610 281.003540,385.529480 
	C280.941742,385.696350 280.617737,385.870209 280.617737,385.870209 
	C280.617737,385.870209 280.314545,385.664734 280.307800,385.487213 
	C280.301056,385.309692 280.620056,385.104279 280.804535,385.059937 
z"/>
<path fill="#FEFEFC" opacity="1.000000" stroke="none" 
	d="
M431.775085,143.848724 
	C452.097168,163.465683 472.087891,183.218216 492.084259,202.965012 
	C503.088501,213.831909 514.102234,224.689224 525.346680,235.725433 
	C525.641663,236.091827 525.701599,236.283630 525.526550,236.892151 
	C523.253113,239.259232 521.186279,241.180954 519.180481,243.164398 
	C501.596130,260.553040 483.983093,277.912964 466.459961,295.363190 
	C455.063782,306.712036 443.803345,318.197174 432.482086,329.621246 
	C432.270325,329.526794 432.049591,329.495270 431.494843,329.276367 
	C428.075378,326.058807 424.980927,323.091553 421.771484,319.808716 
	C414.163269,312.267212 406.669983,305.041290 399.056702,297.505280 
	C397.152985,295.590759 395.369324,293.986389 393.467712,292.070312 
	C391.272919,289.624847 389.233185,287.453522 387.113464,285.363312 
	C370.768188,269.245361 354.407379,253.143204 338.051392,237.036133 
	C338.071930,236.853973 338.092499,236.671814 338.013397,236.233047 
	C353.104340,221.065918 368.307068,206.167725 383.482208,191.241455 
	C399.483887,175.502228 415.459229,159.736221 431.775085,143.848724 
z"/>
<path fill="#F2B31D" opacity="1.000000" stroke="none" 
	d="
M337.746887,237.216965 
	C354.407379,253.143204 370.768188,269.245361 387.113464,285.363312 
	C389.233185,287.453522 391.272919,289.624847 393.310181,292.225769 
	C393.270599,292.692963 392.977081,293.024384 392.643494,293.066223 
	C390.593750,294.289032 388.877563,295.470062 387.161377,296.651093 
	C386.862488,296.185150 386.563599,295.719238 386.264709,295.253326 
	C387.463776,293.852905 388.662842,292.452484 390.295624,290.545532 
	C385.541138,289.805756 381.551270,288.960114 382.476196,283.486633 
	C376.644958,282.352112 374.207184,279.922791 374.223175,275.006866 
	C372.192688,274.678345 370.096344,274.339172 367.964905,273.649475 
	C364.886993,269.122559 361.844116,264.946136 357.791290,259.383484 
	C354.097473,258.853821 348.825073,258.129547 343.565338,257.322601 
	C342.138611,257.103729 340.750214,256.635223 339.344208,256.281281 
	C340.229462,255.187302 341.114716,254.093338 342.359192,253.039032 
	C344.135468,253.739105 345.552551,254.399506 346.982635,255.065979 
	C350.257996,250.215134 348.359467,248.774261 343.447815,249.406860 
	C343.447815,247.776794 343.447815,246.580795 343.447815,245.384811 
	C343.018494,245.066971 342.589172,244.749115 342.159821,244.431274 
	C341.105347,245.620026 340.050842,246.808792 338.606445,247.999298 
	C333.940155,249.103638 332.478394,252.313141 333.411316,257.008484 
	C333.994720,259.944763 334.965332,264.025024 333.538269,265.893585 
	C330.250793,270.198242 330.941986,274.403107 331.405365,278.956299 
	C331.491089,279.798950 330.604736,280.740509 330.167084,281.636444 
	C329.462433,280.865173 328.382782,280.200928 328.126068,279.301788 
	C327.454895,276.951111 327.143494,274.497742 326.677277,272.024841 
	C325.091583,275.864594 323.611206,279.449371 322.154083,282.977814 
	C323.900024,283.936310 325.453949,284.789368 328.141205,286.264587 
	C316.000793,289.796875 318.430725,297.035736 322.598541,305.120972 
	C319.283813,303.202118 317.175812,301.981842 315.067810,300.761566 
	C314.573792,301.230621 314.079773,301.699707 313.585754,302.168762 
	C314.813477,303.976288 316.136078,305.727966 317.241791,307.607269 
	C318.305023,309.414337 319.143707,311.353485 320.081055,313.234589 
	C319.702118,313.385864 319.323151,313.537170 318.944214,313.688446 
	C316.912628,312.728363 314.881042,311.768280 312.118164,310.462616 
	C313.042786,315.061707 315.008484,318.803772 313.934296,321.159943 
	C312.816254,323.612427 308.763245,324.726868 305.183105,326.923706 
	C305.038300,327.430695 304.367737,329.131683 304.083466,330.894928 
	C303.228088,336.200562 297.267303,340.756927 301.704865,346.929535 
	C301.969391,347.297516 300.784912,348.707214 300.792267,348.693909 
	C298.817902,348.005615 297.440186,347.525360 296.019196,347.013123 
	C295.975922,346.981201 295.889038,346.917755 295.889038,346.917755 
	C299.868744,336.044983 303.750732,325.135223 307.847931,314.306915 
	C317.219269,289.539856 326.693085,264.811554 336.140533,240.073334 
	C336.493011,239.150375 337.004852,238.288269 337.746887,237.216965 
z"/>
<path fill="#F2B31D" opacity="1.000000" stroke="none" 
	d="
M360.150482,356.166656 
	C334.861359,365.733368 309.574127,375.305176 284.273590,384.841583 
	C283.523376,385.124359 282.632721,385.034424 281.411743,385.054199 
	C285.796875,372.454498 290.577820,359.918823 295.623901,347.150452 
	C295.889038,346.917755 295.975922,346.981201 296.004272,347.387634 
	C297.448853,351.158508 298.797760,354.553436 300.303040,357.877563 
	C301.454010,360.419312 301.294708,362.034912 297.994904,361.622864 
	C297.151459,359.248962 296.313141,357.252136 295.474823,355.255341 
	C295.069916,355.427765 294.665009,355.600220 294.260132,355.772644 
	C294.505920,357.848022 294.751740,359.923401 294.592285,362.013763 
	C293.458252,363.246399 292.596527,364.405701 292.030731,365.694855 
	C291.098785,367.818268 290.358307,370.025757 289.537079,372.197784 
	C289.140259,372.095093 288.743439,371.992432 288.346619,371.889771 
	C288.775970,374.210724 289.205322,376.531677 289.628082,378.817078 
	C295.256500,377.695251 300.368103,376.676422 305.479736,375.657593 
	C305.187195,375.349091 304.894653,375.040619 304.602112,374.732117 
	C305.819153,373.187500 307.036194,371.642883 308.253204,370.098267 
	C312.622437,374.162720 316.357025,368.840454 318.444427,369.266388 
	C322.227173,365.742767 324.900085,363.252991 327.660767,360.681396 
	C334.013702,366.859955 339.116486,362.208435 344.412689,360.068024 
	C346.941742,359.045929 349.470093,358.021912 352.400513,356.991302 
	C355.178406,356.632599 357.554565,356.281342 359.986389,355.988556 
	C360.042023,356.047058 360.150482,356.166656 360.150482,356.166656 
z"/>
<path fill="#F2B31D" opacity="1.000000" stroke="none" 
	d="
M432.834106,329.828674 
	C443.803345,318.197174 455.063782,306.712036 466.459961,295.363190 
	C483.983093,277.912964 501.596130,260.553040 519.180481,243.164398 
	C521.186279,241.180954 523.253113,239.259232 525.586670,237.187500 
	C528.890076,244.775238 531.901245,252.483276 534.906433,260.193634 
	C545.328796,286.934235 555.797913,313.656799 566.149719,340.424683 
	C571.356323,353.888123 576.378113,367.423615 581.383301,380.963501 
	C581.793396,382.072815 581.431213,383.467651 581.142822,384.998901 
	C532.838989,367.424438 484.819336,349.583313 436.806305,331.724213 
	C435.562378,331.261536 434.391235,330.603180 432.834106,329.828674 
z"/>
<path fill="#F2B31D" opacity="1.000000" stroke="none" 
	d="
M421.886444,320.124329 
	C424.980927,323.091553 428.075378,326.058807 431.332336,329.322266 
	C420.265961,333.759094 409.037079,337.899658 397.395203,342.011841 
	C396.982208,341.983429 396.928955,341.925110 396.986694,341.588928 
	C397.362976,340.168518 397.681488,339.084259 398.333313,338.000000 
	C399.111115,338.000000 399.555542,338.000000 400.412292,338.000000 
	C403.750793,337.140778 406.676941,336.281555 409.603119,335.422333 
	C409.516022,334.984009 409.428925,334.545685 409.341827,334.107361 
	C406.561218,334.404907 403.780609,334.702454 401.009888,334.608856 
	C402.608490,333.146576 404.228271,331.135101 405.779907,331.186340 
	C409.899780,331.322388 412.632538,329.777618 415.021027,326.606049 
	C416.229980,325.000763 418.186768,323.958679 419.805450,322.661987 
	C420.209503,323.130676 420.613586,323.599365 421.017639,324.068085 
	C418.774414,326.469788 416.531158,328.871521 414.214294,331.352081 
	C417.957947,335.463928 420.239960,331.372284 422.437103,329.771820 
	C423.522919,328.980927 423.692017,326.400330 423.590607,324.669678 
	C423.500793,323.137695 422.461517,321.661346 421.851868,320.149902 
	C421.862274,320.139343 421.886444,320.124329 421.886444,320.124329 
z"/>
<path fill="#F2B31D" opacity="1.000000" stroke="none" 
	d="
M397.008240,342.013123 
	C393.168152,343.765839 389.371552,345.671692 385.421356,347.173706 
	C377.288513,350.266144 369.073578,353.142761 360.521454,356.137451 
	C360.150482,356.166656 360.042023,356.047058 360.008942,355.668335 
	C359.981873,354.860565 359.987885,354.431488 359.995544,353.751526 
	C359.998138,353.333344 359.999054,353.166046 360.418915,352.998779 
	C362.947845,352.669312 366.155060,354.228638 366.244324,349.724304 
	C368.419861,349.448608 370.351105,349.448608 372.282318,349.448608 
	C372.153931,349.105103 372.025513,348.761566 371.897095,348.418060 
	C374.642517,347.438141 377.387939,346.458221 380.819305,345.233459 
	C380.818573,345.242615 380.909302,344.121918 381.399994,343.008545 
	C384.004120,343.313354 386.208282,343.610840 388.412415,343.908356 
	C388.539368,343.304138 388.666290,342.699890 388.793243,342.095673 
	C386.195496,341.397522 383.597748,340.699371 381.013428,339.600952 
	C382.890839,338.499115 385.209259,336.741852 386.527161,337.309113 
	C389.550232,338.610260 391.860596,339.396088 394.407440,336.581635 
	C394.711365,336.245789 396.760040,337.488800 397.642944,338.035950 
	C395.889893,338.869049 394.493835,339.666199 393.097809,340.463348 
	C393.205048,340.832825 393.312317,341.202271 393.419556,341.571716 
	C394.589355,341.689514 395.759155,341.807312 396.928955,341.925110 
	C396.928955,341.925110 396.982208,341.983429 397.008240,342.013123 
z"/>
<path fill="#E96F24" opacity="1.000000" stroke="none" 
	d="
M306.000000,89.000610 
	C305.623566,88.328697 305.391785,87.489220 304.843750,87.016037 
	C303.144531,85.548988 301.325134,84.221191 299.472656,82.777206 
	C307.181305,78.736572 313.930054,75.199097 320.862549,71.364555 
	C325.666687,69.769814 330.287079,68.472137 335.304657,67.062927 
	C335.365448,68.210793 335.419891,69.238625 335.434601,69.516647 
	C340.879913,71.159271 346.020172,72.709885 351.160461,74.260506 
	C351.325623,73.854874 351.490753,73.449242 351.655884,73.043610 
	C349.463715,71.269508 347.271515,69.495415 345.206421,67.115257 
	C345.888611,66.339363 346.443695,66.169525 347.239777,66.272568 
	C350.654755,67.349327 353.168671,67.498116 351.000000,62.624931 
	C350.999603,61.501194 350.999207,60.752071 350.998779,60.002945 
	C353.804352,59.806824 356.615356,59.399895 359.414062,59.471413 
	C362.466003,59.549400 365.506561,60.070858 369.393097,60.489616 
	C369.464874,54.729786 369.224121,46.265175 379.701843,51.426250 
	C383.452606,48.594608 386.522491,44.649403 390.206604,43.952900 
	C393.900085,43.254620 398.206421,45.797810 402.244141,46.920311 
	C402.455292,46.465508 402.666443,46.010704 402.877594,45.555897 
	C400.786713,44.471149 398.695831,43.386406 395.510590,41.733906 
	C398.512726,40.787880 400.748108,39.756046 403.080780,39.438297 
	C405.529266,39.104778 408.071014,39.455639 411.083923,39.274307 
	C412.063904,39.361015 412.531952,39.680820 412.865112,40.321415 
	C411.478302,44.320251 414.389954,44.402966 416.194031,43.796520 
	C418.317535,43.082691 420.040558,41.177319 421.937256,39.788635 
	C421.291504,39.192120 420.645752,38.595604 420.035400,37.650608 
	C420.713837,35.201488 421.356903,33.100849 422.000000,31.000210 
	C424.668762,29.825695 427.337524,28.651176 430.008942,27.475494 
	C432.105865,32.932171 432.742554,33.097618 440.026306,30.070845 
	C440.735840,31.576302 441.455322,33.102856 442.420868,35.151497 
	C443.822449,34.091469 444.922333,33.259613 446.025665,32.425156 
	C448.477997,33.550301 450.955078,34.686802 453.921600,36.047871 
	C451.111237,37.155766 448.661407,38.121536 446.211578,39.087307 
	C446.236176,39.542103 446.260773,39.996902 446.285370,40.451698 
	C447.902374,40.760269 449.519409,41.068844 451.431152,41.433659 
	C451.605194,42.257580 451.559052,43.355461 452.053040,44.090084 
	C452.940582,45.409874 454.152435,46.511566 455.228729,47.704407 
	C455.883301,46.522728 456.387939,45.219711 457.224945,44.185711 
	C458.764191,42.284172 460.498993,40.540943 461.773102,39.146683 
	C467.259216,41.780777 470.527435,45.839802 476.806030,45.497753 
	C480.208313,45.312408 486.282501,46.382065 486.529144,53.140663 
	C488.220184,52.377884 489.442444,51.826561 491.856445,50.737682 
	C491.238281,53.323505 490.872223,54.854679 490.576447,56.091976 
	C494.203308,58.049381 497.743225,59.959858 501.283173,61.870335 
	C501.576996,61.558212 501.870850,61.246086 502.164703,60.933964 
	C500.805634,59.023350 499.446533,57.112740 498.015076,55.100376 
	C498.564117,54.721416 499.095123,54.145061 499.300018,54.244019 
	C505.105682,57.047886 510.885895,59.905247 516.634399,62.824490 
	C516.915771,62.967373 516.872803,63.748848 516.990417,64.991516 
	C517.000000,66.499847 517.000000,67.249619 517.000000,67.999390 
	C517.432434,68.992943 517.625793,70.315056 518.381226,70.864655 
	C518.886230,71.232071 520.402893,70.771057 521.103882,70.219482 
	C527.596069,65.110710 533.814636,68.476120 540.060303,70.726509 
	C542.014465,71.430634 544.007751,72.134270 545.801758,73.156334 
	C553.603149,77.600708 561.346130,82.148224 569.071777,86.723221 
	C569.462708,86.954735 569.495300,87.791435 569.715210,88.403397 
	C566.552917,88.197174 563.659241,88.008476 560.788574,87.821266 
	C560.274719,92.877075 558.652771,93.676117 554.237854,92.166565 
	C551.422852,91.204041 548.528625,88.300903 544.820557,92.063591 
	C548.358948,92.888947 551.402710,93.598923 554.446472,94.308899 
	C554.436829,94.867203 554.427185,95.425514 554.417542,95.983826 
	C546.880615,93.730675 542.615967,100.476669 536.156006,101.997437 
	C535.266907,100.732300 534.379395,99.469444 532.806946,97.232033 
	C530.089172,100.062553 527.913452,102.879868 525.190674,104.991943 
	C522.961792,106.720901 520.125183,107.712662 517.479248,108.847458 
	C513.006531,110.765686 508.564819,112.863174 503.913208,114.200584 
	C502.235413,114.682983 499.990814,113.194008 498.004852,112.604645 
	C498.068634,112.067329 498.132416,111.530014 498.196228,110.992706 
	C499.325714,110.384033 500.455231,109.775360 501.584717,109.166687 
	C501.435699,108.745682 501.286682,108.324669 501.137634,107.903664 
	C498.706146,108.602005 496.313782,109.601494 493.833435,109.923424 
	C490.641602,110.337685 490.426819,112.137451 489.214325,114.776558 
	C487.552124,118.394508 483.298401,121.160896 479.614624,123.404411 
	C476.632751,125.220436 472.852356,125.725197 469.074951,126.922943 
	C468.453979,125.763962 467.801178,124.545570 467.183929,123.393494 
	C462.285126,123.393494 457.463196,123.393494 452.641235,123.393494 
	C452.555908,123.700615 452.470581,124.007736 452.385254,124.314857 
	C455.542755,125.592667 458.700256,126.870476 462.285431,128.321365 
	C458.586426,130.701065 457.845795,131.642273 452.620331,127.530365 
	C448.892731,124.597130 445.748901,126.651550 442.361694,125.862823 
	C444.874054,130.800461 450.095581,130.489456 454.925171,131.622223 
	C448.144470,135.800385 441.515594,136.907181 434.173859,136.066650 
	C431.055115,135.709595 427.674530,137.639603 424.157227,138.832672 
	C423.901489,139.135147 423.455109,139.078568 423.055725,138.794479 
	C422.073029,138.354813 421.489685,138.199234 420.906342,138.043640 
	C420.906342,138.043640 420.452301,138.047333 420.182007,137.700562 
	C418.938660,137.236481 417.965607,137.119156 416.992554,137.001846 
	C415.532013,136.434891 414.071472,135.867950 412.304932,134.785156 
	C411.775787,133.313126 411.552612,132.356934 411.329437,131.400757 
	C411.065002,131.417679 410.800568,131.434601 410.536133,131.451523 
	C410.353577,132.314911 410.170990,133.178284 409.988434,134.041672 
	C408.461456,133.563919 406.934479,133.086166 405.252075,131.982117 
	C405.614929,129.904831 406.133240,128.453812 406.651550,127.002785 
	C404.953308,126.693573 403.261047,126.179550 401.555206,126.129532 
	C399.634125,126.073196 397.645874,126.810982 395.783813,126.539146 
	C391.479401,125.910774 387.233551,124.881332 382.963928,124.014557 
	C382.963928,124.014557 382.476868,124.006676 382.122070,123.773209 
	C381.560577,123.273888 381.293121,123.103355 380.964874,123.028168 
	C380.964874,123.028168 381.007080,123.012733 380.827881,122.693039 
	C378.760315,121.917435 376.872009,121.461517 374.983673,121.005600 
	C374.426666,120.855850 373.869690,120.706100 373.188782,119.942551 
	C373.710785,117.908096 374.356720,116.487442 375.239746,114.545410 
	C373.448761,114.316246 372.216064,114.130661 370.977325,114.004921 
	C366.020477,113.501762 361.052216,113.095436 356.107422,112.494774 
	C353.381042,112.163582 350.692932,111.517578 347.987549,111.013496 
	C347.987549,111.013496 348.000000,111.001976 347.956665,110.632523 
	C345.945801,104.944542 344.774231,104.581223 340.950806,108.103882 
	C338.184265,107.178406 335.417694,106.252937 332.286072,104.811935 
	C329.637268,102.104034 327.674164,99.272064 324.970795,97.916740 
	C322.708405,96.782486 319.580719,97.374237 316.836182,97.201714 
	C316.403015,97.454590 315.969849,97.707466 315.161316,97.717979 
	C314.684143,95.801140 314.582336,94.126656 314.462280,92.152168 
	C311.502472,92.466454 308.192657,91.571396 307.979706,96.083519 
	C307.979706,96.083519 307.482269,96.043007 307.068481,95.766403 
	C306.108948,95.325813 305.563202,95.161812 305.017426,94.997810 
	C305.017426,94.997810 304.998322,95.001945 304.999084,94.662308 
	C304.999481,93.882187 304.999115,93.441689 305.138031,92.680557 
	C305.518219,91.240143 305.759094,90.120377 306.000000,89.000610 
M336.090759,72.702110 
	C334.356140,73.410454 332.621521,74.118790 330.886902,74.827133 
	C331.012329,75.269958 331.137756,75.712776 331.263153,76.155602 
	C334.425568,76.155602 337.587952,76.155602 340.750366,76.155602 
	C340.795532,75.758308 340.840698,75.361023 340.885864,74.963730 
	C339.487152,74.357407 338.088409,73.751091 336.090759,72.702110 
M551.246399,84.763290 
	C552.410645,89.242737 555.543091,87.913864 559.112793,87.485985 
	C556.993774,84.374748 555.568604,81.440994 551.246399,84.763290 
M522.739136,95.305748 
	C521.515564,93.932381 520.291992,92.559006 519.068420,91.185623 
	C518.504333,92.333771 517.252014,93.671860 517.506531,94.594093 
	C518.238037,97.244621 520.094360,97.781174 522.739136,95.305748 
M381.174438,58.096481 
	C380.685730,57.406403 380.131866,56.087002 379.719055,56.129765 
	C377.289490,56.381439 374.892822,56.950500 372.485046,57.412632 
	C372.543335,57.931896 372.601654,58.451164 372.659943,58.970428 
	C375.292694,58.844753 377.925446,58.719082 381.174438,58.096481 
M539.886963,96.812202 
	C540.089905,92.774590 539.828918,92.606804 534.793335,95.107376 
	C536.244934,95.724159 537.696594,96.340950 539.886963,96.812202 
M423.142395,44.525692 
	C424.173798,45.223389 425.205231,45.921082 426.236664,46.618786 
	C426.413727,46.029037 426.590790,45.439285 426.767853,44.849537 
	C425.616974,44.507908 424.466064,44.166279 423.142395,44.525692 
M443.669373,132.823517 
	C442.883575,132.850922 442.097748,132.878311 441.311951,132.905701 
	C441.461060,133.472519 441.610199,134.039352 441.759308,134.606171 
	C442.447998,134.237976 443.136688,133.869781 443.669373,132.823517 
M444.071808,42.251965 
	C443.445312,42.719841 442.818817,43.187717 442.192322,43.655613 
	C442.481659,43.970257 442.770996,44.284901 443.060333,44.599541 
	C443.559448,43.959408 444.058594,43.319275 444.071808,42.251965 
M323.490265,92.859238 
	C323.793945,92.431671 324.097626,92.004112 324.401276,91.576538 
	C323.951935,91.462669 323.502594,91.348801 323.053223,91.234932 
	C322.999481,91.735458 322.945709,92.235985 323.490265,92.859238 
M531.527893,70.314674 
	C530.979858,69.975349 530.431824,69.636024 529.883789,69.296707 
	C529.748657,69.571404 529.613525,69.846100 529.478394,70.120804 
	C530.015076,70.326263 530.551758,70.531723 531.527893,70.314674 
z"/>
<path fill="#E77027" opacity="1.000000" stroke="none" 
	d="
M348.216614,111.283188 
	C350.692932,111.517578 353.381042,112.163582 356.107422,112.494774 
	C361.052216,113.095436 366.020477,113.501762 370.977325,114.004921 
	C372.216064,114.130661 373.448761,114.316246 375.239746,114.545410 
	C374.356720,116.487442 373.710785,117.908096 373.014160,119.705376 
	C364.790894,117.238960 356.618256,114.395920 348.216614,111.283188 
z"/>
<path fill="#E77027" opacity="1.000000" stroke="none" 
	d="
M383.191956,124.283691 
	C387.233551,124.881332 391.479401,125.910774 395.783813,126.539146 
	C397.645874,126.810982 399.634125,126.073196 401.555206,126.129532 
	C403.261047,126.179550 404.953308,126.693573 406.651550,127.002785 
	C406.133240,128.453812 405.614929,129.904831 405.025452,131.727570 
	C397.776154,129.583801 390.598083,127.068314 383.191956,124.283691 
z"/>
<path fill="#E77027" opacity="1.000000" stroke="none" 
	d="
M316.864319,97.559616 
	C319.580719,97.374237 322.708405,96.782486 324.970795,97.916740 
	C327.674164,99.272064 329.637268,102.104034 331.962402,104.656296 
	C328.237518,103.783714 324.398254,102.729462 320.740479,101.232025 
	C319.254517,100.623703 318.163269,99.051270 316.864319,97.559616 
z"/>
<path fill="#E77027" opacity="1.000000" stroke="none" 
	d="
M308.203369,96.334442 
	C308.192657,91.571396 311.502472,92.466454 314.462280,92.152168 
	C314.582336,94.126656 314.684143,95.801140 314.928040,97.812805 
	C312.855743,97.628456 310.641418,97.106911 308.203369,96.334442 
z"/>
<path fill="#E77027" opacity="1.000000" stroke="none" 
	d="
M341.173981,108.362572 
	C344.774231,104.581223 345.945801,104.944542 347.949615,110.640770 
	C345.789642,110.219391 343.593384,109.420326 341.173981,108.362572 
z"/>
<path fill="#E77027" opacity="1.000000" stroke="none" 
	d="
M304.998779,93.001198 
	C304.999115,93.441689 304.999481,93.882187 305.001007,94.652725 
	C302.129028,93.856934 299.255920,92.731087 296.167206,91.337029 
	C295.951630,91.068810 295.979187,91.028107 296.399048,91.013107 
	C299.545563,91.665794 302.272156,92.333496 304.998779,93.001198 
z"/>
<path fill="#E77027" opacity="1.000000" stroke="none" 
	d="
M410.162781,134.279526 
	C410.170990,133.178284 410.353577,132.314911 410.536133,131.451523 
	C410.800568,131.434601 411.065002,131.417679 411.329437,131.400757 
	C411.552612,132.356934 411.775787,133.313126 412.000702,134.637085 
	C411.447327,134.842392 410.892212,134.679886 410.162781,134.279526 
z"/>
<path fill="#E77027" opacity="1.000000" stroke="none" 
	d="
M375.212433,121.274948 
	C376.872009,121.461517 378.760315,121.917435 380.811279,122.709412 
	C379.129700,122.545090 377.285431,122.044693 375.212433,121.274948 
z"/>
<path fill="#E77027" opacity="1.000000" stroke="none" 
	d="
M417.202362,137.260849 
	C417.965607,137.119156 418.938660,137.236481 419.955994,137.679260 
	C419.137543,137.843094 418.274872,137.681473 417.202362,137.260849 
z"/>
<path fill="#E77027" opacity="1.000000" stroke="none" 
	d="
M421.093994,138.284882 
	C421.489685,138.199234 422.073029,138.354813 422.832825,138.764038 
	C422.433411,138.853836 421.857544,138.689972 421.093994,138.284882 
z"/>
<path fill="#E77027" opacity="1.000000" stroke="none" 
	d="
M305.180511,95.240952 
	C305.563202,95.161812 306.108948,95.325813 306.822083,95.727066 
	C306.440826,95.804245 305.892212,95.644173 305.180511,95.240952 
z"/>
<path fill="#E77027" opacity="1.000000" stroke="none" 
	d="
M381.068909,123.248894 
	C381.293121,123.103355 381.560577,123.273888 381.879333,123.753159 
	C381.655457,123.904884 381.382629,123.739235 381.068909,123.248894 
z"/>
<path fill="#EB6F22" opacity="1.000000" stroke="none" 
	d="
M413.000000,40.000626 
	C412.531952,39.680820 412.063904,39.361015 411.297913,39.020523 
	C411.572815,37.759186 411.813141,35.969734 412.782013,35.382790 
	C415.479614,33.748505 418.479553,32.613293 421.680054,31.140600 
	C421.356903,33.100849 420.713837,35.201488 419.659546,37.655922 
	C417.165558,38.673351 415.082794,39.336987 413.000000,40.000626 
z"/>
<path fill="#EB6E23" opacity="1.000000" stroke="none" 
	d="
M346.998779,65.999695 
	C346.443695,66.169525 345.888611,66.339363 345.166748,66.754745 
	C343.226776,67.000305 341.453522,67.000305 339.680298,67.000305 
	C339.552490,66.573013 339.424683,66.145729 339.296875,65.718437 
	C342.953094,63.838848 346.609344,61.959263 350.632172,60.041309 
	C350.999207,60.752071 350.999603,61.501194 350.635742,62.629223 
	C349.180573,64.005318 348.089661,65.002502 346.998779,65.999695 
z"/>
<path fill="#ED6E22" opacity="1.000000" stroke="none" 
	d="
M517.380615,67.993736 
	C517.000000,67.249619 517.000000,66.499847 517.000000,65.375191 
	C519.374084,64.640305 521.748169,64.280296 524.122192,63.920296 
	C524.284302,64.415573 524.446411,64.910851 524.608521,65.406136 
	C522.326050,66.266785 520.043640,67.127434 517.380615,67.993736 
z"/>
<path fill="#E96F24" opacity="1.000000" stroke="none" 
	d="
M572.797852,87.795105 
	C572.195251,87.431221 571.892273,87.004448 571.589233,86.577682 
	C572.036987,86.462685 572.484741,86.347687 572.932495,86.232697 
	C572.987488,86.732544 573.042419,87.232376 572.797852,87.795105 
z"/>
<path fill="#EA6F23" opacity="1.000000" stroke="none" 
	d="
M305.138062,92.680557 
	C302.272156,92.333496 299.545563,91.665794 296.414490,90.994019 
	C294.718018,88.820778 293.425964,86.651619 291.633392,83.642082 
	C296.917450,83.215591 300.247101,88.896706 305.621460,88.995239 
	C305.759094,90.120377 305.518219,91.240143 305.138062,92.680557 
z"/>
<path fill="#F2B31D" opacity="1.000000" stroke="none" 
	d="
M399.176727,297.815399 
	C406.669983,305.041290 414.163269,312.267212 421.771484,319.808716 
	C421.886444,320.124329 421.862274,320.139343 421.480652,320.095581 
	C416.747589,317.265656 411.957062,316.283508 406.851562,316.539856 
	C406.780701,316.543365 406.682312,315.998993 406.530792,315.487640 
	C407.879547,315.139282 409.206696,314.796509 410.603882,314.435669 
	C409.501282,312.181488 408.853973,310.056671 407.566742,308.441895 
	C406.153992,306.669708 403.943909,305.544586 402.465179,303.810211 
	C401.025391,302.121429 400.071259,300.018616 398.972046,298.027039 
	C399.040192,297.956451 399.176727,297.815399 399.176727,297.815399 
z"/>
<path fill="#F2B31D" opacity="1.000000" stroke="none" 
	d="
M393.428131,292.537476 
	C395.369324,293.986389 397.152985,295.590759 399.056702,297.505280 
	C399.176727,297.815399 399.040192,297.956451 398.605286,298.000244 
	C393.054626,299.872589 392.685272,296.790497 392.977081,293.024384 
	C392.977081,293.024384 393.270599,292.692963 393.428131,292.537476 
z"/>
<path fill="#F1B519" opacity="1.000000" stroke="none" 
	d="
M392.643494,293.066223 
	C392.685272,296.790497 393.054626,299.872589 398.537140,298.070801 
	C400.071259,300.018616 401.025391,302.121429 402.465179,303.810211 
	C403.943909,305.544586 406.153992,306.669708 407.566742,308.441895 
	C408.853973,310.056671 409.501282,312.181488 410.603882,314.435669 
	C409.206696,314.796509 407.879547,315.139282 406.530792,315.487640 
	C406.682312,315.998993 406.780701,316.543365 406.851562,316.539856 
	C411.957062,316.283508 416.747589,317.265656 421.470215,320.106140 
	C422.461517,321.661346 423.500793,323.137695 423.590607,324.669678 
	C423.692017,326.400330 423.522919,328.980927 422.437103,329.771820 
	C420.239960,331.372284 417.957947,335.463928 414.214294,331.352081 
	C416.531158,328.871521 418.774414,326.469788 421.017639,324.068085 
	C420.613586,323.599365 420.209503,323.130676 419.805450,322.661987 
	C418.186768,323.958679 416.229980,325.000763 415.021027,326.606049 
	C412.632538,329.777618 409.899780,331.322388 405.779907,331.186340 
	C404.228271,331.135101 402.608490,333.146576 400.884430,334.903748 
	C400.499390,336.393188 400.249695,337.196594 400.000000,338.000000 
	C399.555542,338.000000 399.111115,338.000000 398.333313,338.000000 
	C396.760040,337.488800 394.711365,336.245789 394.407440,336.581635 
	C391.860596,339.396088 389.550232,338.610260 386.527161,337.309113 
	C385.209259,336.741852 382.890839,338.499115 381.013428,339.975952 
	C381.000000,341.501190 381.000000,342.251190 381.000000,343.001221 
	C380.909302,344.121918 380.818573,345.242615 380.819305,345.233459 
	C377.387939,346.458221 374.642517,347.438141 371.897095,348.418060 
	C372.025513,348.761566 372.153931,349.105103 372.282318,349.448608 
	C370.351105,349.448608 368.419861,349.448608 365.826843,349.724304 
	C363.550568,351.184265 358.993378,347.300079 360.000000,352.998779 
	C359.999054,353.166046 359.998138,353.333344 359.596252,353.750854 
	C358.129761,354.000305 357.064270,353.999542 355.956665,353.636169 
	C355.005951,352.590088 354.097290,351.906647 353.188660,351.223206 
	C352.792419,352.482117 352.396210,353.741058 352.000000,355.333130 
	C351.999634,356.110443 351.999207,356.554596 351.998779,356.998779 
	C349.470093,358.021912 346.941742,359.045929 344.412689,360.068024 
	C339.116486,362.208435 334.013702,366.859955 327.660767,360.681396 
	C324.900085,363.252991 322.227173,365.742767 318.444427,369.266388 
	C316.357025,368.840454 312.622437,374.162720 308.253204,370.098267 
	C307.036194,371.642883 305.819153,373.187500 304.602112,374.732117 
	C304.894653,375.040619 305.187195,375.349091 305.479736,375.657593 
	C300.368103,376.676422 295.256500,377.695251 289.628082,378.817078 
	C289.205322,376.531677 288.775970,374.210724 288.346619,371.889771 
	C288.743439,371.992432 289.140259,372.095093 289.537079,372.197784 
	C290.358307,370.025757 291.098785,367.818268 292.030731,365.694855 
	C292.596527,364.405701 293.458252,363.246399 294.967621,362.014374 
	C296.498840,362.000000 297.249420,362.000000 298.000000,362.000000 
	C301.294708,362.034912 301.454010,360.419312 300.303040,357.877563 
	C298.797760,354.553436 297.448853,351.158508 296.047546,347.419556 
	C297.440186,347.525360 298.817902,348.005615 300.792267,348.693909 
	C300.784912,348.707214 301.969391,347.297516 301.704865,346.929535 
	C297.267303,340.756927 303.228088,336.200562 304.083466,330.894928 
	C304.367737,329.131683 305.038300,327.430695 305.183105,326.923706 
	C308.763245,324.726868 312.816254,323.612427 313.934296,321.159943 
	C315.008484,318.803772 313.042786,315.061707 312.118164,310.462616 
	C314.881042,311.768280 316.912628,312.728363 318.944214,313.688446 
	C319.323151,313.537170 319.702118,313.385864 320.081055,313.234589 
	C319.143707,311.353485 318.305023,309.414337 317.241791,307.607269 
	C316.136078,305.727966 314.813477,303.976288 313.585754,302.168762 
	C314.079773,301.699707 314.573792,301.230621 315.067810,300.761566 
	C317.175812,301.981842 319.283813,303.202118 322.598541,305.120972 
	C318.430725,297.035736 316.000793,289.796875 328.141205,286.264587 
	C325.453949,284.789368 323.900024,283.936310 322.154083,282.977814 
	C323.611206,279.449371 325.091583,275.864594 326.677277,272.024841 
	C327.143494,274.497742 327.454895,276.951111 328.126068,279.301788 
	C328.382782,280.200928 329.462433,280.865173 330.167084,281.636444 
	C330.604736,280.740509 331.491089,279.798950 331.405365,278.956299 
	C330.941986,274.403107 330.250793,270.198242 333.538269,265.893585 
	C334.965332,264.025024 333.994720,259.944763 333.411316,257.008484 
	C332.478394,252.313141 333.940155,249.103638 338.656006,248.333954 
	C340.063629,250.111038 341.031830,251.555222 342.000000,252.999390 
	C341.114716,254.093338 340.229462,255.187302 339.344208,256.281281 
	C340.750214,256.635223 342.138611,257.103729 343.565338,257.322601 
	C348.825073,258.129547 354.097473,258.853821 357.791290,259.383484 
	C361.844116,264.946136 364.886993,269.122559 367.621338,273.710205 
	C366.928558,275.144653 366.544220,276.167908 366.159882,277.191162 
	C366.612000,277.288544 367.064117,277.385956 367.516235,277.483368 
	C367.677490,276.322235 367.838776,275.161133 368.000000,274.000000 
	C370.096344,274.339172 372.192688,274.678345 374.223175,275.006866 
	C374.207184,279.922791 376.644958,282.352112 382.476196,283.486633 
	C381.551270,288.960114 385.541138,289.805756 390.295624,290.545532 
	C388.662842,292.452484 387.463776,293.852905 386.264709,295.253326 
	C386.563599,295.719238 386.862488,296.185150 387.161377,296.651093 
	C388.877563,295.470062 390.593750,294.289032 392.643494,293.066223 
M304.909515,363.361877 
	C307.720825,367.162415 311.551178,366.795349 316.288391,365.667664 
	C307.208069,365.786194 306.062134,360.137207 306.888031,352.974579 
	C306.200592,353.162292 305.513123,353.350006 304.825684,353.537720 
	C304.700531,356.587860 304.575348,359.638000 304.909515,363.361877 
M344.914856,350.470032 
	C342.814240,350.011749 340.713654,349.553497 338.613037,349.095215 
	C338.429688,349.548767 338.246338,350.002319 338.062988,350.455841 
	C340.313416,351.901031 342.486755,353.502228 344.869629,354.679291 
	C345.449493,354.965698 346.718262,353.857422 347.670258,353.390442 
	C346.989471,352.518219 346.308685,351.646027 344.914856,350.470032 
M334.982544,269.660126 
	C333.620605,274.114319 333.620605,274.114319 337.649689,276.017700 
	C336.845215,273.667725 336.040710,271.317780 334.982544,269.660126 
M352.954010,266.607819 
	C352.357666,267.039948 351.761353,267.472076 351.165009,267.904205 
	C352.678467,269.359863 354.191925,270.815491 355.705383,272.271149 
	C356.142670,271.803009 356.579956,271.334839 357.017242,270.866699 
	C355.844391,269.589874 354.671570,268.313049 352.954010,266.607819 
M368.453735,285.956665 
	C369.394989,286.249451 370.336243,286.542267 371.277466,286.835052 
	C371.414551,286.572388 371.551636,286.309753 371.688721,286.047089 
	C370.165802,284.405579 368.642853,282.764038 367.119904,281.122528 
	C366.704407,281.415619 366.288879,281.708710 365.873352,282.001801 
	C366.543671,283.169098 367.213959,284.336426 368.453735,285.956665 
M340.635498,358.417023 
	C339.489716,357.794617 338.343933,357.172211 337.198181,356.549774 
	C336.910339,357.415131 336.622528,358.280518 336.334686,359.145874 
	C337.646423,359.111572 338.958130,359.077301 340.635498,358.417023 
M390.787872,332.508881 
	C389.357178,332.097992 387.926483,331.687103 386.495819,331.276245 
	C386.414337,332.039612 386.332886,332.802948 386.251434,333.566315 
	C387.697754,333.458618 389.144043,333.350891 390.787872,332.508881 
M336.360291,252.567230 
	C336.873901,252.834671 337.387512,253.102097 337.901154,253.369537 
	C338.123596,252.834946 338.346069,252.300339 338.568512,251.765732 
	C337.922546,251.858139 337.276611,251.950562 336.360291,252.567230 
M351.639221,347.432861 
	C351.125732,347.165527 350.612244,346.898193 350.098755,346.630890 
	C349.876343,347.165344 349.653931,347.699768 349.431519,348.234192 
	C350.077332,348.141785 350.723145,348.049347 351.639221,347.432861 
M398.609161,305.797577 
	C398.214447,305.793396 397.819733,305.789185 397.425018,305.784973 
	C397.423523,305.948761 397.411041,306.254913 397.422058,306.255768 
	C397.814819,306.286041 398.209808,306.287750 398.609161,305.797577 
M376.390594,286.202545 
	C376.785461,286.206726 377.180328,286.210907 377.575195,286.215057 
	C377.576721,286.051208 377.589233,285.744995 377.578156,285.744141 
	C377.185242,285.713837 376.790100,285.712158 376.390594,286.202545 
M411.390839,321.202454 
	C411.785522,321.206665 412.180237,321.210846 412.574921,321.215057 
	C412.576385,321.051270 412.588867,320.745148 412.577789,320.744263 
	C412.185059,320.713989 411.790161,320.712280 411.390839,321.202454 
z"/>
<path fill="#EEB616" opacity="1.000000" stroke="none" 
	d="
M342.359192,253.039047 
	C341.031830,251.555222 340.063629,250.111038 339.045898,248.332214 
	C340.050842,246.808792 341.105347,245.620026 342.159821,244.431274 
	C342.589172,244.749115 343.018494,245.066971 343.447815,245.384811 
	C343.447815,246.580795 343.447815,247.776794 343.447815,249.406860 
	C348.359467,248.774261 350.257996,250.215134 346.982635,255.065979 
	C345.552551,254.399506 344.135468,253.739105 342.359192,253.039047 
z"/>
<path fill="#EFB616" opacity="1.000000" stroke="none" 
	d="
M297.994904,361.622864 
	C297.249420,362.000000 296.498840,362.000000 295.372925,361.999390 
	C294.751740,359.923401 294.505920,357.848022 294.260132,355.772644 
	C294.665009,355.600220 295.069916,355.427765 295.474823,355.255341 
	C296.313141,357.252136 297.151459,359.248962 297.994904,361.622864 
z"/>
<path fill="#F1B516" opacity="1.000000" stroke="none" 
	d="
M355.998779,353.998779 
	C357.064270,353.999542 358.129761,354.000305 359.594574,354.001770 
	C359.987885,354.431488 359.981873,354.860565 359.953308,355.609833 
	C357.554565,356.281342 355.178406,356.632599 352.400513,356.991333 
	C351.999207,356.554596 351.999634,356.110443 352.345337,355.301178 
	C353.793335,354.623657 354.896057,354.311218 355.998779,353.998779 
z"/>
<path fill="#EFB616" opacity="1.000000" stroke="none" 
	d="
M400.412292,338.000000 
	C400.249695,337.196594 400.499390,336.393188 400.874542,335.294891 
	C403.780609,334.702454 406.561218,334.404907 409.341827,334.107361 
	C409.428925,334.545685 409.516022,334.984009 409.603119,335.422333 
	C406.676941,336.281555 403.750793,337.140778 400.412292,338.000000 
z"/>
<path fill="#F1B519" opacity="1.000000" stroke="none" 
	d="
M396.986694,341.588928 
	C395.759155,341.807312 394.589355,341.689514 393.419556,341.571716 
	C393.312317,341.202271 393.205048,340.832825 393.097809,340.463348 
	C394.493835,339.666199 395.889893,338.869049 397.642944,338.035950 
	C397.681488,339.084259 397.362976,340.168518 396.986694,341.588928 
z"/>
<path fill="#EFB616" opacity="1.000000" stroke="none" 
	d="
M381.399994,343.008545 
	C381.000000,342.251190 381.000000,341.501190 381.000000,340.376190 
	C383.597748,340.699371 386.195496,341.397522 388.793243,342.095673 
	C388.666290,342.699890 388.539368,343.304138 388.412415,343.908356 
	C386.208282,343.610840 384.004120,343.313354 381.399994,343.008545 
z"/>
<path fill="#F1B516" opacity="1.000000" stroke="none" 
	d="
M360.418915,352.998779 
	C358.993378,347.300079 363.550568,351.184265 365.582520,350.000000 
	C366.155060,354.228638 362.947845,352.669312 360.418915,352.998779 
z"/>
<path fill="#E77027" opacity="1.000000" stroke="none" 
	d="
M412.865112,40.321411 
	C415.082794,39.336987 417.165558,38.673351 419.624176,38.004402 
	C420.645752,38.595604 421.291504,39.192120 421.937256,39.788635 
	C420.040558,41.177319 418.317535,43.082691 416.194031,43.796520 
	C414.389954,44.402966 411.478302,44.320251 412.865112,40.321411 
z"/>
<path fill="#E77027" opacity="1.000000" stroke="none" 
	d="
M336.390228,72.923439 
	C338.088409,73.751091 339.487152,74.357407 340.885864,74.963730 
	C340.840698,75.361023 340.795532,75.758308 340.750366,76.155602 
	C337.587952,76.155602 334.425568,76.155602 331.263153,76.155602 
	C331.137756,75.712776 331.012329,75.269958 330.886902,74.827133 
	C332.621521,74.118790 334.356140,73.410454 336.390228,72.923439 
z"/>
<path fill="#E77027" opacity="1.000000" stroke="none" 
	d="
M551.427124,84.432327 
	C555.568604,81.440994 556.993774,84.374748 559.112793,87.485985 
	C555.543091,87.913864 552.410645,89.242737 551.427124,84.432327 
z"/>
<path fill="#E77027" opacity="1.000000" stroke="none" 
	d="
M522.547668,95.627609 
	C520.094360,97.781174 518.238037,97.244621 517.506531,94.594093 
	C517.252014,93.671860 518.504333,92.333771 519.068420,91.185631 
	C520.291992,92.559006 521.515564,93.932381 522.547668,95.627609 
z"/>
<path fill="#E77027" opacity="1.000000" stroke="none" 
	d="
M380.866333,58.344948 
	C377.925446,58.719082 375.292694,58.844753 372.659943,58.970428 
	C372.601654,58.451164 372.543335,57.931896 372.485046,57.412632 
	C374.892822,56.950500 377.289490,56.381439 379.719055,56.129765 
	C380.131866,56.087002 380.685730,57.406403 380.866333,58.344948 
z"/>
<path fill="#E77027" opacity="1.000000" stroke="none" 
	d="
M539.517578,96.884972 
	C537.696594,96.340950 536.244934,95.724159 534.793335,95.107376 
	C539.828918,92.606804 540.089905,92.774590 539.517578,96.884972 
z"/>
<path fill="#E77027" opacity="1.000000" stroke="none" 
	d="
M347.239777,66.272568 
	C348.089661,65.002502 349.180573,64.005318 350.635742,63.003834 
	C353.168671,67.498116 350.654755,67.349327 347.239777,66.272568 
z"/>
<path fill="#E77027" opacity="1.000000" stroke="none" 
	d="
M423.228790,44.175171 
	C424.466064,44.166279 425.616974,44.507908 426.767883,44.849537 
	C426.590790,45.439285 426.413727,46.029037 426.236633,46.618782 
	C425.205231,45.921082 424.173798,45.223389 423.228790,44.175171 
z"/>
<path fill="#E77027" opacity="1.000000" stroke="none" 
	d="
M443.747375,133.162552 
	C443.136688,133.869781 442.447998,134.237976 441.759308,134.606171 
	C441.610199,134.039352 441.461060,133.472519 441.311951,132.905701 
	C442.097748,132.878311 442.883575,132.850922 443.747375,133.162552 
z"/>
<path fill="#E77027" opacity="1.000000" stroke="none" 
	d="
M444.314758,42.465553 
	C444.058594,43.319275 443.559448,43.959408 443.060333,44.599541 
	C442.770996,44.284901 442.481659,43.970257 442.192322,43.655602 
	C442.818817,43.187717 443.445312,42.719841 444.314758,42.465553 
z"/>
<path fill="#E77027" opacity="1.000000" stroke="none" 
	d="
M323.191101,92.797874 
	C322.945709,92.235985 322.999481,91.735458 323.053223,91.234932 
	C323.502594,91.348801 323.951935,91.462669 324.401276,91.576538 
	C324.097626,92.004112 323.793945,92.431671 323.191101,92.797874 
z"/>
<path fill="#E77027" opacity="1.000000" stroke="none" 
	d="
M531.308167,70.525925 
	C530.551758,70.531723 530.015076,70.326263 529.478394,70.120804 
	C529.613525,69.846100 529.748657,69.571404 529.883789,69.296700 
	C530.431824,69.636024 530.979858,69.975349 531.308167,70.525925 
z"/>
<path fill="#F2B31D" opacity="1.000000" stroke="none" 
	d="
M304.679871,363.025024 
	C304.575348,359.638000 304.700531,356.587860 304.825684,353.537720 
	C305.513123,353.350006 306.200592,353.162292 306.888031,352.974579 
	C306.062134,360.137207 307.208069,365.786194 316.288391,365.667664 
	C311.551178,366.795349 307.720825,367.162415 304.679871,363.025024 
z"/>
<path fill="#F2B31D" opacity="1.000000" stroke="none" 
	d="
M345.271362,350.621948 
	C346.308685,351.646027 346.989471,352.518219 347.670258,353.390442 
	C346.718262,353.857422 345.449493,354.965698 344.869629,354.679291 
	C342.486755,353.502228 340.313416,351.901031 338.062988,350.455841 
	C338.246338,350.002319 338.429688,349.548767 338.613037,349.095215 
	C340.713654,349.553497 342.814240,350.011749 345.271362,350.621948 
z"/>
<path fill="#F2B31D" opacity="1.000000" stroke="none" 
	d="
M335.109375,269.313965 
	C336.040710,271.317780 336.845215,273.667725 337.649689,276.017700 
	C333.620605,274.114319 333.620605,274.114319 335.109375,269.313965 
z"/>
<path fill="#F2B31D" opacity="1.000000" stroke="none" 
	d="
M353.226379,266.822021 
	C354.671570,268.313049 355.844391,269.589874 357.017242,270.866699 
	C356.579956,271.334839 356.142670,271.803009 355.705383,272.271149 
	C354.191925,270.815491 352.678467,269.359863 351.165009,267.904205 
	C351.761353,267.472076 352.357666,267.039948 353.226379,266.822021 
z"/>
<path fill="#F2B31D" opacity="1.000000" stroke="none" 
	d="
M368.169006,285.730194 
	C367.213959,284.336426 366.543671,283.169098 365.873352,282.001801 
	C366.288879,281.708710 366.704407,281.415619 367.119904,281.122528 
	C368.642853,282.764038 370.165802,284.405579 371.688721,286.047089 
	C371.551636,286.309753 371.414551,286.572388 371.277466,286.835052 
	C370.336243,286.542267 369.394989,286.249451 368.169006,285.730194 
z"/>
<path fill="#F2B31D" opacity="1.000000" stroke="none" 
	d="
M340.452698,358.730011 
	C338.958130,359.077301 337.646423,359.111572 336.334686,359.145874 
	C336.622528,358.280518 336.910339,357.415131 337.198181,356.549774 
	C338.343933,357.172211 339.489716,357.794617 340.452698,358.730011 
z"/>
<path fill="#F2B31D" opacity="1.000000" stroke="none" 
	d="
M390.689117,332.876038 
	C389.144043,333.350891 387.697754,333.458618 386.251434,333.566315 
	C386.332886,332.802948 386.414337,332.039612 386.495819,331.276245 
	C387.926483,331.687103 389.357178,332.097992 390.689117,332.876038 
z"/>
<path fill="#F2B31D" opacity="1.000000" stroke="none" 
	d="
M355.956665,353.636169 
	C354.896057,354.311218 353.793335,354.623657 352.345276,354.968048 
	C352.396210,353.741058 352.792419,352.482117 353.188660,351.223206 
	C354.097290,351.906647 355.005951,352.590088 355.956665,353.636169 
z"/>
<path fill="#F2B31D" opacity="1.000000" stroke="none" 
	d="
M367.656433,274.060699 
	C367.838776,275.161133 367.677490,276.322235 367.516235,277.483368 
	C367.064117,277.385956 366.612000,277.288544 366.159882,277.191162 
	C366.544220,276.167908 366.928558,275.144653 367.656433,274.060699 
z"/>
<path fill="#F2B31D" opacity="1.000000" stroke="none" 
	d="
M336.495483,252.305099 
	C337.276611,251.950562 337.922546,251.858139 338.568542,251.765732 
	C338.346069,252.300339 338.123596,252.834946 337.901123,253.369537 
	C337.387512,253.102097 336.873901,252.834671 336.495483,252.305099 
z"/>
<path fill="#F2B31D" opacity="1.000000" stroke="none" 
	d="
M351.504089,347.694885 
	C350.723145,348.049347 350.077332,348.141785 349.431519,348.234192 
	C349.653931,347.699768 349.876343,347.165344 350.098755,346.630890 
	C350.612244,346.898193 351.125732,347.165527 351.504089,347.694885 
z"/>
<path fill="#F2B31D" opacity="1.000000" stroke="none" 
	d="
M398.606812,306.045532 
	C398.209808,306.287750 397.814819,306.286041 397.422058,306.255768 
	C397.411041,306.254913 397.423523,305.948761 397.425018,305.784973 
	C397.819733,305.789185 398.214447,305.793396 398.606812,306.045532 
z"/>
<path fill="#F2B31D" opacity="1.000000" stroke="none" 
	d="
M376.392944,285.954529 
	C376.790100,285.712158 377.185242,285.713837 377.578156,285.744141 
	C377.589233,285.744995 377.576721,286.051208 377.575195,286.215088 
	C377.180328,286.210907 376.785461,286.206726 376.392944,285.954529 
z"/>
<path fill="#F2B31D" opacity="1.000000" stroke="none" 
	d="
M411.393188,320.954529 
	C411.790161,320.712280 412.185059,320.713989 412.577789,320.744263 
	C412.588867,320.745148 412.576385,321.051270 412.574921,321.215057 
	C412.180237,321.210846 411.785522,321.206665 411.393188,320.954529 
z"/>
</svg>