<svg version="1.1" id="Layer_1" xmlns="http://www.w3.org/2000/svg" xmlns:xlink="http://www.w3.org/1999/xlink" x="0px" y="0px"
	 width="100%" viewBox="0 0 425 134" enable-background="new 0 0 425 134" xml:space="preserve">
<path fill="#000000" opacity="1.000000" stroke="none" 
	d="
M1.000000,36.000000 
	C1.000000,24.337959 1.000000,12.675920 1.000000,1.010409 
	C142.605865,1.006940 284.211731,1.006940 425.908813,1.006940 
	C425.908813,45.587986 425.908813,90.176216 425.908813,134.882233 
	C284.333405,134.882233 142.666718,134.882233 1.000000,134.882233 
	C1.000000,106.915291 1.000000,78.926308 1.287781,50.119854 
	C2.968840,53.331791 4.451746,57.332821 5.738093,61.396072 
	C9.188037,72.293587 12.704350,83.173874 15.903059,94.145905 
	C18.251259,102.200569 19.882523,110.469444 22.377840,118.473083 
	C23.203800,121.122322 25.727158,123.242363 27.474447,125.604362 
	C28.299154,125.532722 29.123859,125.461082 29.948566,125.389442 
	C37.695690,108.941460 45.442818,92.493477 53.459057,75.474136 
	C60.554886,90.723694 67.209427,105.249207 74.129219,119.647232 
	C75.133469,121.736771 77.407906,123.215836 79.094566,124.977394 
	C81.063644,122.725525 83.926964,120.782097 84.830467,118.162682 
	C87.323997,110.933540 88.903091,103.394516 91.015091,96.027145 
	C96.242836,77.791046 101.626785,59.599491 106.791420,41.345741 
	C107.652237,38.303303 107.086159,35.711842 102.755035,35.928650 
	C100.512932,36.040882 98.220184,35.462162 95.972092,35.070610 
	C90.345406,34.090599 85.662117,36.563145 84.283585,41.408386 
	C83.135040,45.445240 81.920227,49.475094 81.038445,53.573391 
	C79.469704,60.864521 78.130630,68.205063 76.516037,76.440285 
	C74.724937,72.680466 73.325523,69.758942 71.939743,66.830956 
	C67.282967,56.991802 62.736610,47.097511 57.865742,37.365589 
	C57.117836,35.871292 54.856632,34.233162 53.344063,34.278763 
	C51.860298,34.323494 49.836632,36.137215 49.085461,37.679077 
	C43.283180,49.588905 37.726387,61.618446 32.119144,73.622856 
	C31.793352,74.320343 31.690617,75.122002 31.290195,76.582169 
	C29.498066,70.344620 28.171288,66.023262 27.020807,61.655464 
	C25.123913,54.453907 23.646776,47.120441 21.298964,40.073719 
	C20.698204,38.270607 17.605293,36.442741 15.467155,36.181210 
	C10.708578,35.599152 5.829792,35.999844 1.000000,36.000000 
M110.162964,38.496571 
	C110.110863,65.288254 110.052216,92.079933 110.042175,118.871635 
	C110.041908,119.584267 110.569092,120.297104 111.031372,121.862404 
	C112.491150,122.241379 113.948898,122.940132 115.411026,122.949417 
	C128.730286,123.033951 142.050323,122.998238 155.370132,122.997917 
	C167.964920,122.997627 167.727661,122.990692 168.099854,110.509834 
	C168.281845,104.406998 166.658936,102.918060 160.220352,102.982491 
	C150.951492,103.075256 141.681015,103.006187 131.963684,103.006187 
	C131.963684,98.102577 131.963684,93.725067 131.963684,88.997993 
	C136.893478,88.997993 142.201752,88.997276 147.510040,88.998131 
	C162.746536,89.000572 162.708084,89.002571 162.019562,73.873405 
	C161.868912,70.563118 160.931320,68.779785 157.090317,68.924545 
	C149.941040,69.193993 142.774261,69.028336 135.615173,68.981529 
	C134.244400,68.972565 132.875504,68.676918 131.698349,68.536507 
	C131.904709,63.986977 132.079147,60.141308 132.267181,55.996181 
	C139.429245,55.996181 146.232803,56.122463 153.030197,55.971470 
	C170.363174,55.586441 167.737778,59.704967 168.007431,40.104935 
	C168.048157,37.145157 167.057327,35.940491 163.974899,35.958324 
	C147.325699,36.054668 130.675385,35.967663 114.026505,36.089157 
	C112.962845,36.096924 111.908104,37.327717 110.162964,38.496571 
M176.236862,34.018883 
	C170.848892,33.932480 172.911301,37.072403 173.930008,39.556946 
	C179.213959,52.443974 182.945633,65.732933 182.996384,79.726456 
	C183.018066,85.712502 182.277695,91.839188 180.874924,97.658844 
	C178.968246,105.569000 176.074203,113.239738 173.658417,121.030151 
	C173.304886,122.170189 173.254089,123.404099 172.998169,125.000328 
	C175.585220,125.000328 177.567871,125.000328 179.550522,125.000328 
	C246.015762,125.000374 312.481354,124.894302 378.945801,125.123863 
	C388.086243,125.155434 394.865051,125.112648 397.667084,113.500587 
	C400.047333,103.636497 403.445221,93.975624 403.879395,83.791618 
	C404.277802,74.446831 403.758209,65.113457 400.120239,56.146088 
	C398.136414,51.256073 397.658112,45.759037 395.711273,40.848816 
	C394.571320,37.973701 393.207367,34.323784 388.022156,34.023930 
	C319.534943,34.015957 251.047745,34.006702 182.560532,34.006943 
	C180.731216,34.006950 178.901886,34.109959 176.236862,34.018883 
z"/>
<path fill="#F86600" opacity="1.000000" stroke="none" 
	d="
M1.000000,36.464653 
	C5.829792,35.999844 10.708578,35.599152 15.467155,36.181210 
	C17.605293,36.442741 20.698204,38.270607 21.298964,40.073719 
	C23.646776,47.120441 25.123913,54.453907 27.020807,61.655464 
	C28.171288,66.023262 29.498066,70.344620 31.290195,76.582169 
	C31.690617,75.122002 31.793352,74.320343 32.119144,73.622856 
	C37.726387,61.618446 43.283180,49.588905 49.085461,37.679077 
	C49.836632,36.137215 51.860298,34.323494 53.344063,34.278763 
	C54.856632,34.233162 57.117836,35.871292 57.865742,37.365589 
	C62.736610,47.097511 67.282967,56.991802 71.939743,66.830956 
	C73.325523,69.758942 74.724937,72.680466 76.516037,76.440285 
	C78.130630,68.205063 79.469704,60.864521 81.038445,53.573391 
	C81.920227,49.475094 83.135040,45.445240 84.283585,41.408386 
	C85.662117,36.563145 90.345406,34.090599 95.972092,35.070610 
	C98.220184,35.462162 100.512932,36.040882 102.755035,35.928650 
	C107.086159,35.711842 107.652237,38.303303 106.791420,41.345741 
	C101.626785,59.599491 96.242836,77.791046 91.015091,96.027145 
	C88.903091,103.394516 87.323997,110.933540 84.830467,118.162682 
	C83.926964,120.782097 81.063644,122.725525 79.094566,124.977394 
	C77.407906,123.215836 75.133469,121.736771 74.129219,119.647232 
	C67.209427,105.249207 60.554886,90.723694 53.459057,75.474136 
	C45.442818,92.493477 37.695690,108.941460 29.948566,125.389442 
	C29.123859,125.461082 28.299154,125.532722 27.474447,125.604362 
	C25.727158,123.242363 23.203800,121.122322 22.377840,118.473083 
	C19.882523,110.469444 18.251259,102.200569 15.903059,94.145905 
	C12.704350,83.173874 9.188037,72.293587 5.738093,61.396072 
	C4.451746,57.332821 2.968840,53.331791 1.287781,49.651196 
	C1.000000,45.643101 1.000000,41.286201 1.000000,36.464653 
z"/>
<path fill="#F86604" opacity="1.000000" stroke="none" 
	d="
M388.939819,34.165482 
	C393.207367,34.323784 394.571320,37.973701 395.711273,40.848816 
	C397.658112,45.759037 398.136414,51.256073 400.120239,56.146088 
	C403.758209,65.113457 404.277802,74.446831 403.879395,83.791618 
	C403.445221,93.975624 400.047333,103.636497 397.667084,113.500587 
	C394.865051,125.112648 388.086243,125.155434 378.945801,125.123863 
	C312.481354,124.894302 246.015762,125.000374 179.550522,125.000328 
	C177.567871,125.000328 175.585220,125.000328 172.998169,125.000328 
	C173.254089,123.404099 173.304886,122.170189 173.658417,121.030151 
	C176.074203,113.239738 178.968246,105.569000 180.874924,97.658844 
	C182.277695,91.839188 183.018066,85.712502 182.996384,79.726456 
	C182.945633,65.732933 179.213959,52.443974 173.930008,39.556946 
	C172.911301,37.072403 170.848892,33.932480 177.013916,34.278984 
	C179.604874,34.693115 181.418747,34.981186 183.232697,34.981812 
	C249.685013,35.004848 316.137329,35.008911 382.589630,34.966076 
	C384.706543,34.964710 386.823090,34.444057 388.939819,34.165482 
M329.460663,102.510223 
	C329.460663,102.510223 329.619720,102.402245 330.504395,102.538681 
	C333.061371,102.146317 335.618378,101.753952 338.454987,100.497513 
	C338.664276,97.461357 336.817474,97.184761 334.373718,97.083229 
	C332.491272,97.005013 330.639435,96.189804 328.774017,95.702301 
	C328.873688,95.074936 328.973389,94.447571 329.073059,93.820213 
	C331.103058,93.657295 333.145569,93.268639 335.160400,93.380074 
	C338.952332,93.589775 339.883545,91.882973 338.632751,87.766602 
	C334.772705,85.035706 328.055878,85.259285 325.313995,88.263748 
	C325.313995,88.263748 325.269867,88.477966 324.606689,88.396896 
	C324.133972,88.989388 323.661285,89.581879 323.187775,91.089035 
	C323.173065,97.333755 323.158356,103.578476 323.104858,110.495201 
	C323.750641,111.061310 324.396423,111.627411 325.426758,112.835663 
	C328.476990,113.221519 331.542633,113.970154 334.570953,113.841278 
	C336.101318,113.776154 337.564148,112.123329 339.143311,110.337158 
	C339.802216,107.013611 337.916870,106.553535 335.173431,106.334221 
	C333.163361,106.173531 331.225677,105.107620 329.446411,103.583977 
	C329.446381,103.289963 329.446381,102.995941 329.460663,102.510223 
M271.225708,111.418968 
	C273.996277,111.655350 274.492462,110.040695 274.453705,107.712784 
	C274.368500,102.592522 274.276367,97.463753 274.483337,92.350449 
	C274.610046,89.219612 273.264893,88.170006 269.874847,88.222206 
	C269.454010,88.799408 269.033203,89.376617 268.659973,90.884583 
	C268.659821,97.272430 268.659668,103.660271 268.446045,110.534866 
	C269.120209,110.857201 269.794342,111.179535 271.225708,111.418968 
M211.488983,101.403969 
	C211.327393,99.940804 211.165787,98.477631 211.095184,96.336639 
	C211.419998,95.258621 211.744797,94.180595 212.534760,92.521255 
	C211.862213,91.173790 211.295593,88.739250 210.499329,88.661682 
	C206.435989,88.265831 202.313354,88.478867 197.687271,88.478867 
	C197.687271,92.994263 197.611404,96.799019 197.701111,100.599861 
	C198.001816,113.340347 195.210663,111.123062 208.869766,111.415665 
	C212.579071,111.495125 213.902603,110.110420 211.897217,105.916412 
	C211.594193,104.576851 211.291168,103.237297 211.488983,101.403969 
M318.641815,87.332947 
	C313.935364,85.024025 307.768860,85.449745 304.659882,89.003113 
	C304.510590,92.629181 304.176331,96.258759 304.244843,99.880699 
	C304.503235,113.534897 301.586365,111.092857 316.105133,111.503899 
	C319.414093,111.597588 320.157288,110.108063 319.647736,106.679848 
	C318.040466,106.541458 316.433228,106.403061 314.104431,106.392120 
	C312.786041,105.603539 311.467651,104.814957 310.149261,104.026382 
	C311.506317,103.273361 312.818115,101.997589 314.229797,101.875404 
	C317.229950,101.615738 320.242645,101.915634 318.726837,96.703903 
	C318.448181,96.120888 318.169556,95.537872 318.181335,94.312668 
	C318.455597,92.213226 318.729858,90.113777 318.641815,87.332947 
M235.796021,88.402443 
	C233.166626,88.244911 232.271973,89.600075 232.384399,92.078926 
	C232.497513,94.573212 232.409302,97.076622 232.409302,100.937943 
	C226.705292,95.960625 222.299576,92.116188 216.774551,87.295067 
	C216.774551,95.497383 216.670303,102.233429 216.907440,108.957443 
	C216.936844,109.791496 218.842926,111.256584 219.766052,111.173279 
	C220.765091,111.083130 222.267090,109.619598 222.428894,108.580536 
	C222.819077,106.075005 222.555389,103.467651 222.555389,99.377823 
	C228.146286,104.109634 232.513077,107.805428 237.015930,111.908760 
	C237.424118,111.986687 237.832306,112.064606 238.240494,112.142525 
	C238.131607,111.752266 238.022736,111.362000 237.898178,110.092758 
	C237.934952,103.396317 237.971725,96.699883 238.302261,89.572510 
	C237.711105,89.165482 237.119949,88.758453 235.796021,88.402443 
M263.544647,93.371117 
	C263.056580,92.517776 262.568542,91.664436 261.983429,90.140388 
	C260.458313,88.118317 259.501740,84.507141 255.155334,88.067657 
	C247.248169,88.335045 242.744507,91.117065 241.034760,96.446014 
	C239.076965,102.548058 242.738800,111.025040 252.092117,112.946640 
	C255.834976,115.960388 259.615204,114.462074 262.299377,108.457375 
	C263.137390,107.277710 263.975403,106.098053 265.181824,104.923965 
	C265.174225,104.603905 265.166656,104.283852 265.160339,103.095367 
	C265.133392,101.666161 265.106445,100.236946 265.039215,98.178589 
	C264.529999,96.828499 264.020813,95.478416 263.544647,93.371117 
M284.884460,110.770607 
	C285.905457,107.859818 286.926453,104.949028 288.546936,102.334473 
	C292.069916,105.444702 295.592865,108.554939 300.231934,112.650497 
	C300.231934,104.343224 300.337982,97.604485 300.098206,90.878082 
	C300.068115,90.034416 298.176239,88.586891 297.215454,88.640732 
	C296.308502,88.691559 294.892487,90.273567 294.752991,91.322098 
	C294.399170,93.981445 294.635498,96.719307 294.635498,100.955086 
	C289.310333,96.160454 285.194946,92.455055 280.931274,88.260002 
	C280.299835,88.531349 279.668427,88.802696 279.081299,90.001060 
	C279.088501,95.569107 279.277557,101.144852 279.042023,106.702614 
	C278.871460,110.728355 280.307251,112.204338 284.884460,110.770607 
M332.544922,73.598648 
	C331.802124,73.370567 331.059357,73.142479 330.088013,72.228783 
	C330.132721,71.510544 330.177399,70.792297 330.970215,69.824562 
	C334.346191,69.000053 337.722198,68.175545 341.733917,66.966705 
	C341.842590,64.931190 341.951263,62.895676 341.895538,60.156700 
	C337.991638,59.432392 334.087769,58.708084 330.200531,57.079716 
	C333.273926,56.546299 336.330048,55.796665 339.426300,55.549934 
	C341.775909,55.362713 343.635406,55.424099 343.597900,52.197319 
	C343.559479,48.895275 341.517334,48.974537 339.252014,48.987614 
	C334.937195,49.012520 330.620056,49.078758 326.308014,48.967266 
	C323.803223,48.902500 322.701813,49.758526 322.754364,52.404522 
	C322.942139,61.855480 322.983612,71.309341 323.177063,81.560974 
	C323.608795,82.227577 324.023804,83.461319 324.474762,83.474625 
	C330.074615,83.639854 335.682251,83.710510 341.279602,83.538094 
	C341.866882,83.519997 342.401672,81.797951 343.121399,80.400833 
	C343.121399,80.400833 343.509735,80.097832 344.039215,79.778618 
	C343.888763,78.150444 343.738312,76.522270 342.819977,74.452110 
	C339.547272,74.290558 336.274536,74.128998 332.544922,73.598648 
M368.194611,63.798843 
	C362.302338,58.657024 356.410065,53.515202 349.804749,47.751163 
	C349.804749,59.470924 349.804749,69.843277 349.804749,80.327957 
	C352.381683,80.327957 354.594543,80.327957 357.410706,80.327957 
	C357.410706,74.885254 357.410706,69.855469 357.410706,63.852531 
	C365.062164,70.348511 371.868652,76.127113 379.408539,81.601257 
	C379.923828,80.635681 380.872040,79.676514 380.886444,78.703522 
	C381.011505,70.253044 381.032349,61.799084 380.900177,53.349049 
	C380.882599,52.227623 379.833954,51.122330 378.594116,49.508858 
	C376.282349,49.346806 373.970551,49.184753 371.091888,48.982960 
	C371.091888,54.610195 371.091888,59.317554 370.312836,64.069115 
	C369.793121,64.092659 369.273376,64.116203 368.194611,63.798843 
M317.388733,80.398026 
	C317.592285,79.598831 317.795837,78.799637 318.352966,77.581421 
	C318.035065,76.683281 317.717163,75.785133 317.130554,74.069687 
	C315.767548,65.647865 314.404541,57.226040 312.845367,47.592117 
	C308.099579,54.224564 304.013702,59.934788 299.480652,66.269913 
	C294.922546,59.941895 290.788361,54.202400 285.936066,47.465977 
	C284.110443,59.375679 282.522949,69.732002 280.940186,80.057304 
	C288.845062,81.546669 289.461853,81.076202 290.075287,74.231491 
	C290.280365,71.942993 290.781250,69.681007 291.146912,67.406898 
	C291.567688,67.392601 291.988434,67.378311 292.409210,67.364014 
	C294.661194,70.800156 296.913147,74.236305 299.292389,77.866608 
	C301.806213,74.189087 303.914825,71.104378 306.631409,68.046188 
	C307.238342,68.079124 307.845245,68.112068 308.653778,68.993622 
	C308.796814,71.323257 308.939880,73.652885 308.740112,76.290215 
	C308.986877,76.903969 309.233673,77.517723 309.712891,78.728745 
	C310.164734,79.429314 310.616577,80.129890 311.328888,81.481895 
	C313.447296,83.457710 315.368164,83.680481 317.388733,80.398026 
M227.265106,78.277756 
	C227.972916,79.236137 228.680725,80.194519 229.937485,81.896172 
	C234.627884,70.281830 238.943268,59.596092 243.367249,48.641438 
	C233.363174,47.649532 233.278503,47.674114 231.967484,55.373688 
	C231.388855,58.772038 229.622620,61.968178 227.932343,66.497269 
	C224.894394,59.707306 222.414490,54.164600 219.443115,47.523418 
	C216.374222,54.353500 213.980774,59.680321 210.959534,66.404335 
	C209.245911,61.439159 208.059235,57.878010 206.788651,54.347057 
	C204.673080,48.467846 202.588959,47.621628 196.130936,50.159473 
	C200.415863,60.618168 204.696548,71.066528 209.376434,82.489258 
	C212.959763,75.843712 215.920563,70.352692 219.448334,63.810204 
	C222.269928,69.038246 224.590530,73.338005 227.265106,78.277756 
M272.810944,52.664101 
	C271.581299,51.817486 270.420502,50.840969 269.110260,50.146336 
	C262.854279,46.829586 252.168503,48.288086 247.760300,53.461281 
	C242.907410,59.156311 241.847061,65.834908 245.170776,72.095360 
	C248.621872,78.595718 254.398117,81.969498 261.913422,81.647392 
	C268.849213,81.350128 274.175934,77.970879 276.745117,71.611115 
	C279.405945,65.024307 278.661316,58.536736 272.810944,52.664101 
M343.332092,91.952728 
	C343.328278,97.095749 343.273132,102.239403 343.335846,107.381615 
	C343.392548,112.029526 343.677338,112.201515 348.679199,111.308395 
	C348.888519,109.187828 349.101685,107.028648 349.314850,104.869461 
	C351.882080,106.662193 353.108643,108.966492 354.865997,110.746864 
	C357.344879,113.258278 359.708832,111.991608 362.311646,109.701614 
	C357.598541,106.769974 356.709473,103.657837 359.785950,98.907394 
	C362.190460,95.194595 360.306091,91.212189 356.676819,89.478378 
	C352.453308,87.460670 345.191833,88.294022 343.332092,91.952728 
M375.720947,88.472603 
	C369.365448,87.654549 364.951569,89.496063 364.090363,93.324951 
	C363.239777,97.106781 365.971985,100.463280 371.709839,102.884598 
	C372.740143,103.319382 373.591431,104.178452 374.525360,104.841621 
	C374.295807,105.429657 374.066284,106.017693 373.836731,106.605736 
	C372.107941,106.205925 370.396210,105.681267 368.645477,105.441986 
	C366.948212,105.210014 365.210876,105.271271 363.491119,105.203743 
	C364.102936,106.694672 364.402466,109.190529 365.382904,109.495232 
	C368.846558,110.571617 372.666595,111.705986 376.102051,111.182259 
	C377.940002,110.902069 380.010010,107.472435 380.640900,105.108078 
	C381.461670,102.032150 379.762665,99.500549 376.406128,98.291191 
	C374.208405,97.499367 372.203308,96.172981 370.111938,95.086014 
	C370.284149,94.608803 370.456360,94.131592 370.628540,93.654388 
	C372.335297,94.105927 374.020264,94.745285 375.756042,94.946251 
	C377.017151,95.092270 378.764526,95.082138 379.508270,94.346344 
	C380.080994,93.779747 379.760590,91.803368 379.223602,90.774048 
	C378.749268,89.864876 377.426727,89.398232 375.720947,88.472603 
z"/>
<path fill="#F96600" opacity="1.000000" stroke="none" 
	d="
M110.849213,37.989555 
	C111.908104,37.327717 112.962845,36.096924 114.026505,36.089157 
	C130.675385,35.967663 147.325699,36.054668 163.974899,35.958324 
	C167.057327,35.940491 168.048157,37.145157 168.007431,40.104935 
	C167.737778,59.704967 170.363174,55.586441 153.030197,55.971470 
	C146.232803,56.122463 139.429245,55.996181 132.267181,55.996181 
	C132.079147,60.141308 131.904709,63.986977 131.698349,68.536507 
	C132.875504,68.676918 134.244400,68.972565 135.615173,68.981529 
	C142.774261,69.028336 149.941040,69.193993 157.090317,68.924545 
	C160.931320,68.779785 161.868912,70.563118 162.019562,73.873405 
	C162.708084,89.002571 162.746536,89.000572 147.510040,88.998131 
	C142.201752,88.997276 136.893478,88.997993 131.963684,88.997993 
	C131.963684,93.725067 131.963684,98.102577 131.963684,103.006187 
	C141.681015,103.006187 150.951492,103.075256 160.220352,102.982491 
	C166.658936,102.918060 168.281845,104.406998 168.099854,110.509834 
	C167.727661,122.990692 167.964920,122.997627 155.370132,122.997917 
	C142.050323,122.998238 128.730286,123.033951 115.411026,122.949417 
	C113.948898,122.940132 112.491150,122.241379 110.988113,120.970718 
	C110.912971,92.715881 110.881096,65.352722 110.849213,37.989555 
z"/>
<path fill="#FF7F00" opacity="1.000000" stroke="none" 
	d="
M388.480988,34.094704 
	C386.823090,34.444057 384.706543,34.964710 382.589630,34.966076 
	C316.137329,35.008911 249.685013,35.004848 183.232697,34.981812 
	C181.418747,34.981186 179.604874,34.693115 177.431763,34.352013 
	C178.901886,34.109959 180.731216,34.006950 182.560532,34.006943 
	C251.047745,34.006702 319.534943,34.015957 388.480988,34.094704 
z"/>
<path fill="#FF0000" opacity="1.000000" stroke="none" 
	d="
M110.506088,38.243065 
	C110.881096,65.352722 110.912971,92.715881 110.897575,120.544441 
	C110.569092,120.297104 110.041908,119.584267 110.042175,118.871635 
	C110.052216,92.079933 110.110863,65.288254 110.506088,38.243065 
z"/>
<path fill="#FFF1EA" opacity="1.000000" stroke="none" 
	d="
M227.088120,77.957764 
	C224.590530,73.338005 222.269928,69.038246 219.448334,63.810204 
	C215.920563,70.352692 212.959763,75.843712 209.376434,82.489258 
	C204.696548,71.066528 200.415863,60.618168 196.130936,50.159473 
	C202.588959,47.621628 204.673080,48.467846 206.788651,54.347057 
	C208.059235,57.878010 209.245911,61.439159 210.959534,66.404335 
	C213.980774,59.680321 216.374222,54.353500 219.443115,47.523418 
	C222.414490,54.164600 224.894394,59.707306 227.932343,66.497269 
	C229.622620,61.968178 231.388855,58.772038 231.967484,55.373688 
	C233.278503,47.674114 233.363174,47.649532 243.367249,48.641438 
	C238.943268,59.596092 234.627884,70.281830 229.937485,81.896172 
	C228.680725,80.194519 227.972916,79.236137 227.088120,77.957764 
z"/>
<path fill="#FFF1EA" opacity="1.000000" stroke="none" 
	d="
M273.081604,52.908798 
	C278.661316,58.536736 279.405945,65.024307 276.745117,71.611115 
	C274.175934,77.970879 268.849213,81.350128 261.913422,81.647392 
	C254.398117,81.969498 248.621872,78.595718 245.170776,72.095360 
	C241.847061,65.834908 242.907410,59.156311 247.760300,53.461281 
	C252.168503,48.288086 262.854279,46.829586 269.110260,50.146336 
	C270.420502,50.840969 271.581299,51.817486 273.081604,52.908798 
M253.094345,69.134987 
	C253.692276,69.932388 254.198349,70.824028 254.903519,71.511421 
	C258.635315,75.149231 264.657043,74.930801 267.740082,71.097778 
	C270.966187,67.086899 270.218170,59.890129 266.290619,57.152382 
	C261.971344,54.141567 255.618958,55.385490 253.465591,60.241913 
	C252.415817,62.609451 252.948273,65.678543 253.094345,69.134987 
z"/>
<path fill="#FFF1E9" opacity="1.000000" stroke="none" 
	d="
M309.082947,75.982521 
	C308.939880,73.652885 308.796814,71.323257 308.640991,68.276169 
	C308.241241,67.141701 307.854248,66.724678 307.467255,66.307648 
	C306.985992,66.878326 306.504730,67.448990 306.023438,68.019661 
	C303.914825,71.104378 301.806213,74.189087 299.292389,77.866608 
	C296.913147,74.236305 294.661194,70.800156 292.409210,67.364014 
	C291.988434,67.378311 291.567688,67.392601 291.146912,67.406898 
	C290.781250,69.681007 290.280365,71.942993 290.075287,74.231491 
	C289.461853,81.076202 288.845062,81.546669 280.940186,80.057304 
	C282.522949,69.732002 284.110443,59.375679 285.936066,47.465977 
	C290.788361,54.202400 294.922546,59.941895 299.480652,66.269913 
	C304.013702,59.934788 308.099579,54.224564 312.845367,47.592117 
	C314.404541,57.226040 315.767548,65.647865 317.163086,74.798546 
	C317.463501,76.351753 317.731445,77.176102 317.999390,78.000443 
	C317.795837,78.799637 317.592285,79.598831 316.756989,80.515343 
	C314.439636,80.698593 312.754028,80.764526 311.068420,80.830467 
	C310.616577,80.129890 310.164734,79.429314 309.708862,78.154716 
	C309.497528,77.047966 309.290222,76.515244 309.082947,75.982521 
z"/>
<path fill="#FFF4EE" opacity="1.000000" stroke="none" 
	d="
M378.675110,81.905716 
	C371.868652,76.127113 365.062164,70.348511 357.410706,63.852531 
	C357.410706,69.855469 357.410706,74.885254 357.410706,80.327957 
	C354.594543,80.327957 352.381683,80.327957 349.804749,80.327957 
	C349.804749,69.843277 349.804749,59.470924 349.804749,47.751163 
	C356.410065,53.515202 362.302338,58.657024 368.662598,64.323639 
	C369.784363,64.573929 370.438110,64.299416 371.091888,64.024902 
	C371.091888,59.317554 371.091888,54.610195 371.091888,48.982960 
	C373.970551,49.184753 376.282349,49.346806 378.858704,50.222961 
	C378.973877,61.259953 378.824493,71.582832 378.675110,81.905716 
z"/>
<path fill="#FFF2EC" opacity="1.000000" stroke="none" 
	d="
M330.222076,70.074066 
	C330.177399,70.792297 330.132721,71.510544 330.265656,72.914719 
	C331.296143,73.722923 332.148987,73.845184 333.001831,73.967445 
	C336.274536,74.128998 339.547272,74.290558 343.133850,75.102478 
	C343.468414,77.201172 343.489075,78.649506 343.509735,80.097832 
	C343.509735,80.097832 343.121399,80.400833 342.576294,80.598671 
	C335.714264,80.785042 329.397339,80.773575 323.080444,80.762100 
	C322.983612,71.309341 322.942139,61.855480 322.754364,52.404522 
	C322.701813,49.758526 323.803223,48.902500 326.308014,48.967266 
	C330.620056,49.078758 334.937195,49.012520 339.252014,48.987614 
	C341.517334,48.974537 343.559479,48.895275 343.597900,52.197319 
	C343.635406,55.424099 341.775909,55.362713 339.426300,55.549934 
	C336.330048,55.796665 333.273926,56.546299 330.049347,57.869377 
	C331.035431,59.456799 332.116760,60.820335 333.321167,60.939514 
	C336.203247,61.224701 339.143311,60.924217 342.059967,60.860161 
	C341.951263,62.895676 341.842590,64.931190 340.972168,67.011383 
	C337.807678,67.012932 335.343689,66.640770 333.029236,67.071671 
	C331.944794,67.273575 331.148804,69.024933 330.222076,70.074066 
z"/>
<path fill="#FEEDE4" opacity="1.000000" stroke="none" 
	d="
M281.079529,88.749657 
	C285.194946,92.455055 289.310333,96.160454 294.635498,100.955086 
	C294.635498,96.719307 294.399170,93.981445 294.752991,91.322098 
	C294.892487,90.273567 296.308502,88.691559 297.215454,88.640732 
	C298.176239,88.586891 300.068115,90.034416 300.098206,90.878082 
	C300.337982,97.604485 300.231934,104.343224 300.231934,112.650497 
	C295.592865,108.554939 292.069916,105.444702 288.089966,101.865906 
	C286.752625,100.961418 285.872284,100.525505 284.219635,99.707161 
	C284.219635,104.066078 284.219635,107.582817 284.219635,111.099564 
	C280.307251,112.204338 278.871460,110.728355 279.042023,106.702614 
	C279.277557,101.144852 279.088501,95.569107 279.392578,89.444336 
	C280.162415,88.841621 280.620972,88.795639 281.079529,88.749657 
z"/>
<path fill="#FEEBE1" opacity="1.000000" stroke="none" 
	d="
M251.941208,112.281326 
	C242.738800,111.025040 239.076965,102.548058 241.034760,96.446014 
	C242.744507,91.117065 247.248169,88.335045 255.873840,88.201202 
	C258.421722,89.160194 260.251099,89.985641 262.080475,90.811096 
	C262.568542,91.664436 263.056580,92.517776 263.132538,93.873932 
	C260.905548,94.277412 258.849670,94.692436 257.323364,93.977249 
	C253.535263,92.202255 250.284714,92.667000 248.202072,96.101601 
	C246.253265,99.315521 246.401108,102.979736 249.613327,105.558540 
	C253.045013,108.313545 256.136383,107.322182 259.034485,103.996193 
	C258.302185,103.551849 257.898407,103.337051 257.527191,103.075974 
	C256.381500,102.270325 255.248230,101.446999 254.110138,100.630531 
	C255.441055,100.024155 256.727234,99.067558 258.112976,98.890495 
	C260.401306,98.598099 262.753967,98.808968 265.079498,98.807739 
	C265.106445,100.236946 265.133392,101.666161 265.009277,103.745140 
	C264.843323,104.569405 264.828369,104.743904 264.813446,104.918396 
	C263.975403,106.098053 263.137390,107.277710 261.823456,108.869072 
	C258.212097,110.280960 255.076645,111.281143 251.941208,112.281326 
z"/>
<path fill="#FEECE3" opacity="1.000000" stroke="none" 
	d="
M343.350342,91.479202 
	C345.191833,88.294022 352.453308,87.460670 356.676819,89.478378 
	C360.306091,91.212189 362.190460,95.194595 359.785950,98.907394 
	C356.709473,103.657837 357.598541,106.769974 362.311646,109.701614 
	C359.708832,111.991608 357.344879,113.258278 354.865997,110.746864 
	C353.108643,108.966492 351.882080,106.662193 349.314850,104.869461 
	C349.101685,107.028648 348.888519,109.187828 348.679199,111.308395 
	C343.677338,112.201515 343.392548,112.029526 343.335846,107.381615 
	C343.273132,102.239403 343.328278,97.095749 343.350342,91.479202 
M349.142822,97.400185 
	C350.589478,97.751625 352.043304,98.347511 353.478424,98.305496 
	C353.908752,98.292892 354.873383,96.187416 354.556641,95.594856 
	C354.034607,94.618225 352.318909,93.292801 351.733215,93.548767 
	C350.618988,94.035728 349.947296,95.535309 349.142822,97.400185 
z"/>
<path fill="#FFEEE6" opacity="1.000000" stroke="none" 
	d="
M236.879868,111.501213 
	C232.513077,107.805428 228.146286,104.109634 222.555389,99.377823 
	C222.555389,103.467651 222.819077,106.075005 222.428894,108.580536 
	C222.267090,109.619598 220.765091,111.083130 219.766052,111.173279 
	C218.842926,111.256584 216.936844,109.791496 216.907440,108.957443 
	C216.670303,102.233429 216.774551,95.497383 216.774551,87.295067 
	C222.299576,92.116188 226.705292,95.960625 232.409302,100.937943 
	C232.409302,97.076622 232.497513,94.573212 232.384399,92.078926 
	C232.271973,89.600075 233.166626,88.244911 236.288879,88.628975 
	C237.190659,89.238152 237.599579,89.620796 238.008514,90.003441 
	C237.971725,96.699883 237.934952,103.396317 237.612091,110.595444 
	C237.177292,111.232483 237.028580,111.366844 236.879868,111.501213 
z"/>
<path fill="#FEE9DD" opacity="1.000000" stroke="none" 
	d="
M376.099823,88.604401 
	C377.426727,89.398232 378.749268,89.864876 379.223602,90.774048 
	C379.760590,91.803368 380.080994,93.779747 379.508270,94.346344 
	C378.764526,95.082138 377.017151,95.092270 375.756042,94.946251 
	C374.020264,94.745285 372.335297,94.105927 370.628540,93.654388 
	C370.456360,94.131592 370.284149,94.608803 370.111938,95.086014 
	C372.203308,96.172981 374.208405,97.499367 376.406128,98.291191 
	C379.762665,99.500549 381.461670,102.032150 380.640900,105.108078 
	C380.010010,107.472435 377.940002,110.902069 376.102051,111.182259 
	C372.666595,111.705986 368.846558,110.571617 365.382904,109.495232 
	C364.402466,109.190529 364.102936,106.694672 363.491119,105.203743 
	C365.210876,105.271271 366.948212,105.210014 368.645477,105.441986 
	C370.396210,105.681267 372.107941,106.205925 373.836731,106.605736 
	C374.066284,106.017693 374.295807,105.429657 374.525360,104.841621 
	C373.591431,104.178452 372.740143,103.319382 371.709839,102.884598 
	C365.971985,100.463280 363.239777,97.106781 364.090363,93.324951 
	C364.951569,89.496063 369.365448,87.654549 376.099823,88.604401 
z"/>
<path fill="#FEE8DD" opacity="1.000000" stroke="none" 
	d="
M319.792847,107.309540 
	C320.157288,110.108063 319.414093,111.597588 316.105133,111.503899 
	C301.586365,111.092857 304.503235,113.534897 304.244843,99.880699 
	C304.176331,96.258759 304.510590,92.629181 305.281799,88.688400 
	C310.270508,88.253899 314.637329,88.134117 319.004120,88.014336 
	C318.729858,90.113777 318.455597,92.213226 317.721985,94.520279 
	C314.899902,94.727882 312.537170,94.727882 309.424591,94.727882 
	C312.093201,98.747025 315.881256,96.522644 318.744354,97.360535 
	C320.242645,101.915634 317.229950,101.615738 314.229797,101.875404 
	C312.818115,101.997589 311.506317,103.273361 310.149261,104.026382 
	C311.467651,104.814957 312.786041,105.603539 314.862640,106.482574 
	C317.011505,106.818527 318.402191,107.064034 319.792847,107.309540 
z"/>
<path fill="#FEE9DE" opacity="1.000000" stroke="none" 
	d="
M329.255737,104.445168 
	C331.225677,105.107620 333.163361,106.173531 335.173431,106.334221 
	C337.916870,106.553535 339.802216,107.013611 338.634064,110.819717 
	C333.755646,111.327545 329.386475,111.352821 324.879883,111.093597 
	C324.209534,110.480476 323.676575,110.151833 323.143646,109.823196 
	C323.158356,103.578476 323.173065,97.333755 323.461060,90.556877 
	C324.246155,89.509132 324.758026,88.993546 325.269867,88.477966 
	C325.269867,88.477966 325.313995,88.263748 325.659912,88.310616 
	C330.294739,88.420212 334.583649,88.482948 338.872559,88.545685 
	C339.883545,91.882973 338.952332,93.589775 335.160400,93.380074 
	C333.145569,93.268639 331.103058,93.657295 329.073059,93.820213 
	C328.973389,94.447571 328.873688,95.074936 328.774017,95.702301 
	C330.639435,96.189804 332.491272,97.005013 334.373718,97.083229 
	C336.817474,97.184761 338.664276,97.461357 337.883667,100.934166 
	C334.748169,101.714630 332.183929,102.058434 329.619720,102.402237 
	C329.619720,102.402245 329.460663,102.510223 329.297607,102.788551 
	C329.174927,103.526306 329.215332,103.985741 329.255737,104.445168 
z"/>
<path fill="#FEEFE7" opacity="1.000000" stroke="none" 
	d="
M211.004181,97.014465 
	C211.165787,98.477631 211.327393,99.940804 210.873749,101.528564 
	C208.957489,101.593170 207.510986,101.148666 206.392700,101.571732 
	C205.032822,102.086189 203.949463,103.331596 202.746490,104.260803 
	C203.914154,105.078087 204.991257,106.350021 206.270950,106.604958 
	C208.140793,106.977470 210.156067,106.619965 212.109344,106.573616 
	C213.902603,110.110420 212.579071,111.495125 208.869766,111.415665 
	C195.210663,111.123062 198.001816,113.340347 197.701111,100.599861 
	C197.611404,96.799019 197.687271,92.994263 197.687271,88.478867 
	C202.313354,88.478867 206.435989,88.265831 210.499329,88.661682 
	C211.295593,88.739250 211.862213,91.173790 211.848419,92.747635 
	C209.211349,92.987823 207.213348,92.755836 205.329681,93.118202 
	C204.375061,93.301849 203.626831,94.558266 202.785294,95.329681 
	C203.584778,95.979103 204.332855,97.087753 205.194229,97.184196 
	C207.100662,97.397606 209.064026,97.102287 211.004181,97.014465 
z"/>
<path fill="#F97027" opacity="1.000000" stroke="none" 
	d="
M265.059357,98.493164 
	C262.753967,98.808968 260.401306,98.598099 258.112976,98.890495 
	C256.727234,99.067558 255.441055,100.024155 254.110138,100.630531 
	C255.248230,101.446999 256.381500,102.270325 257.527191,103.075974 
	C257.898407,103.337051 258.302185,103.551849 259.034485,103.996193 
	C256.136383,107.322182 253.045013,108.313545 249.613327,105.558540 
	C246.401108,102.979736 246.253265,99.315521 248.202072,96.101601 
	C250.284714,92.667000 253.535263,92.202255 257.323364,93.977249 
	C258.849670,94.692436 260.905548,94.277412 263.116028,94.252533 
	C264.020813,95.478416 264.529999,96.828499 265.059357,98.493164 
z"/>
<path fill="#FFF3EE" opacity="1.000000" stroke="none" 
	d="
M270.406219,88.401039 
	C273.264893,88.170006 274.610046,89.219612 274.483337,92.350449 
	C274.276367,97.463753 274.368500,102.592522 274.453705,107.712784 
	C274.492462,110.040695 273.996277,111.655350 270.673035,111.222702 
	C269.633453,110.700333 269.146484,110.374222 268.659546,110.048119 
	C268.659668,103.660271 268.659821,97.272430 268.900696,90.276077 
	C269.563049,89.245392 269.984619,88.823219 270.406219,88.401039 
z"/>
<path fill="#F85500" opacity="1.000000" stroke="none" 
	d="
M379.041809,81.753487 
	C378.824493,71.582832 378.973877,61.259953 379.193054,50.473320 
	C379.833954,51.122330 380.882599,52.227623 380.900177,53.349049 
	C381.032349,61.799084 381.011505,70.253044 380.886444,78.703522 
	C380.872040,79.676514 379.923828,80.635681 379.041809,81.753487 
z"/>
<path fill="#F85700" opacity="1.000000" stroke="none" 
	d="
M323.128754,81.161537 
	C329.397339,80.773575 335.714264,80.785042 342.495972,80.831482 
	C342.401672,81.797951 341.866882,83.519997 341.279602,83.538094 
	C335.682251,83.710510 330.074615,83.639854 324.474762,83.474625 
	C324.023804,83.461319 323.608795,82.227577 323.128754,81.161537 
z"/>
<path fill="#FA7938" opacity="1.000000" stroke="none" 
	d="
M212.003281,106.245010 
	C210.156067,106.619965 208.140793,106.977470 206.270950,106.604958 
	C204.991257,106.350021 203.914154,105.078087 202.746490,104.260803 
	C203.949463,103.331596 205.032822,102.086189 206.392700,101.571732 
	C207.510986,101.148666 208.957489,101.593170 210.623322,101.775452 
	C211.291168,103.237297 211.594193,104.576851 212.003281,106.245010 
z"/>
<path fill="#F85802" opacity="1.000000" stroke="none" 
	d="
M325.017303,111.378098 
	C329.386475,111.352821 333.755646,111.327545 338.591156,111.245316 
	C337.564148,112.123329 336.101318,113.776154 334.570953,113.841278 
	C331.542633,113.970154 328.476990,113.221519 325.275269,112.309158 
	C325.123810,111.782646 325.017303,111.378098 325.017303,111.378098 
z"/>
<path fill="#FA7539" opacity="1.000000" stroke="none" 
	d="
M341.977753,60.508430 
	C339.143311,60.924217 336.203247,61.224701 333.321167,60.939514 
	C332.116760,60.820335 331.035431,59.456799 330.041016,58.321407 
	C334.087769,58.708084 337.991638,59.432392 341.977753,60.508430 
z"/>
<path fill="#FB925D" opacity="1.000000" stroke="none" 
	d="
M211.049683,96.675552 
	C209.064026,97.102287 207.100662,97.397606 205.194229,97.184196 
	C204.332855,97.087753 203.584778,95.979103 202.785294,95.329681 
	C203.626831,94.558266 204.375061,93.301849 205.329681,93.118202 
	C207.213348,92.755836 209.211349,92.987823 211.615845,93.038300 
	C211.744797,94.180595 211.419998,95.258621 211.049683,96.675552 
z"/>
<path fill="#F97027" opacity="1.000000" stroke="none" 
	d="
M252.016663,112.613983 
	C255.076645,111.281143 258.212097,110.280960 261.680786,109.147392 
	C259.615204,114.462074 255.834976,115.960388 252.016663,112.613983 
z"/>
<path fill="#F85806" opacity="1.000000" stroke="none" 
	d="
M318.822968,87.673645 
	C314.637329,88.134117 310.270508,88.253899 305.438354,88.325150 
	C307.768860,85.449745 313.935364,85.024025 318.822968,87.673645 
z"/>
<path fill="#F85906" opacity="1.000000" stroke="none" 
	d="
M338.752655,88.156143 
	C334.583649,88.482948 330.294739,88.420212 325.553070,88.287270 
	C328.055878,85.259285 334.772705,85.035706 338.752655,88.156143 
z"/>
<path fill="#FA7C36" opacity="1.000000" stroke="none" 
	d="
M284.552063,110.935089 
	C284.219635,107.582817 284.219635,104.066078 284.219635,99.707161 
	C285.872284,100.525505 286.752625,100.961418 287.790222,101.717789 
	C286.926453,104.949028 285.905457,107.859818 284.552063,110.935089 
z"/>
<path fill="#FA7539" opacity="1.000000" stroke="none" 
	d="
M330.596130,69.949310 
	C331.148804,69.024933 331.944794,67.273575 333.029236,67.071671 
	C335.343689,66.640770 337.807678,67.012932 340.654297,67.203552 
	C337.722198,68.175545 334.346191,69.000053 330.596130,69.949310 
z"/>
<path fill="#FA7F46" opacity="1.000000" stroke="none" 
	d="
M318.735596,97.032219 
	C315.881256,96.522644 312.093201,98.747025 309.424591,94.727882 
	C312.537170,94.727882 314.899902,94.727882 317.576782,94.841370 
	C318.169556,95.537872 318.448181,96.120888 318.735596,97.032219 
z"/>
<path fill="#FA884E" opacity="1.000000" stroke="none" 
	d="
M330.062073,102.470459 
	C332.183929,102.058434 334.748169,101.714630 337.743866,101.366196 
	C335.618378,101.753952 333.061371,102.146317 330.062073,102.470459 
z"/>
<path fill="#F97027" opacity="1.000000" stroke="none" 
	d="
M262.031952,90.475739 
	C260.251099,89.985641 258.421722,89.160194 256.297821,88.167862 
	C259.501740,84.507141 260.458313,88.118317 262.031952,90.475739 
z"/>
<path fill="#FA823D" opacity="1.000000" stroke="none" 
	d="
M311.198669,81.156181 
	C312.754028,80.764526 314.439636,80.698593 316.535065,80.740860 
	C315.368164,83.680481 313.447296,83.457710 311.198669,81.156181 
z"/>
<path fill="#FA782F" opacity="1.000000" stroke="none" 
	d="
M343.774475,79.938225 
	C343.489075,78.649506 343.468414,77.201172 343.517822,75.323471 
	C343.738312,76.522270 343.888763,78.150444 343.774475,79.938225 
z"/>
<path fill="#FA7F46" opacity="1.000000" stroke="none" 
	d="
M319.720276,106.994690 
	C318.402191,107.064034 317.011505,106.818527 315.223389,106.418839 
	C316.433228,106.403061 318.040466,106.541458 319.720276,106.994690 
z"/>
<path fill="#FA823D" opacity="1.000000" stroke="none" 
	d="
M318.176178,77.790932 
	C317.731445,77.176102 317.463501,76.351753 317.297424,75.207199 
	C317.717163,75.785133 318.035065,76.683281 318.176178,77.790932 
z"/>
<path fill="#FA823D" opacity="1.000000" stroke="none" 
	d="
M306.327423,68.032928 
	C306.504730,67.448990 306.985992,66.878326 307.467255,66.307648 
	C307.854248,66.724678 308.241241,67.141701 308.540222,67.851868 
	C307.845245,68.112068 307.238342,68.079124 306.327423,68.032928 
z"/>
<path fill="#FB9966" opacity="1.000000" stroke="none" 
	d="
M324.938293,88.437431 
	C324.758026,88.993546 324.246155,89.509132 323.461456,90.099541 
	C323.661285,89.581879 324.133972,88.989388 324.938293,88.437431 
z"/>
<path fill="#FA7C36" opacity="1.000000" stroke="none" 
	d="
M281.005402,88.504829 
	C280.620972,88.795639 280.162415,88.841621 279.370422,88.980820 
	C279.668427,88.802696 280.299835,88.531349 281.005402,88.504829 
z"/>
<path fill="#FB9154" opacity="1.000000" stroke="none" 
	d="
M270.140533,88.311623 
	C269.984619,88.823219 269.563049,89.245392 268.876923,89.810692 
	C269.033203,89.376617 269.454010,88.799408 270.140533,88.311623 
z"/>
<path fill="#FA8541" opacity="1.000000" stroke="none" 
	d="
M238.155380,89.787979 
	C237.599579,89.620796 237.190659,89.238152 236.655273,88.603470 
	C237.119949,88.758453 237.711105,89.165482 238.155380,89.787979 
z"/>
<path fill="#FA823D" opacity="1.000000" stroke="none" 
	d="
M308.911530,76.136368 
	C309.290222,76.515244 309.497528,77.047966 309.592651,77.856079 
	C309.233673,77.517723 308.986877,76.903969 308.911530,76.136368 
z"/>
<path fill="#FB9154" opacity="1.000000" stroke="none" 
	d="
M268.552795,110.291489 
	C269.146484,110.374222 269.633453,110.700333 270.294434,111.264160 
	C269.794342,111.179535 269.120209,110.857201 268.552795,110.291489 
z"/>
<path fill="#FA884E" opacity="1.000000" stroke="none" 
	d="
M324.879883,111.093605 
	C325.017303,111.378098 325.123810,111.782646 325.083008,111.988083 
	C324.396423,111.627411 323.750641,111.061310 323.124268,110.159195 
	C323.676575,110.151833 324.209534,110.480476 324.879883,111.093605 
z"/>
<path fill="#FA8541" opacity="1.000000" stroke="none" 
	d="
M236.947906,111.704987 
	C237.028580,111.366844 237.177292,111.232483 237.619934,111.034927 
	C238.022736,111.362000 238.131607,111.752266 238.240494,112.142525 
	C237.832306,112.064606 237.424118,111.986687 236.947906,111.704987 
z"/>
<path fill="#FA782F" opacity="1.000000" stroke="none" 
	d="
M332.773376,73.783051 
	C332.148987,73.845184 331.296143,73.722923 330.379944,73.257523 
	C331.059357,73.142479 331.802124,73.370567 332.773376,73.783051 
z"/>
<path fill="#FA7B32" opacity="1.000000" stroke="none" 
	d="
M370.702362,64.047012 
	C370.438110,64.299416 369.784363,64.573929 368.942139,64.494095 
	C369.273376,64.116203 369.793121,64.092659 370.702362,64.047012 
z"/>
<path fill="#F97027" opacity="1.000000" stroke="none" 
	d="
M264.997620,104.921181 
	C264.828369,104.743904 264.843323,104.569405 265.008667,104.179352 
	C265.166656,104.283852 265.174225,104.603905 264.997620,104.921181 
z"/>
<path fill="#FA884E" opacity="1.000000" stroke="none" 
	d="
M329.351074,104.014572 
	C329.215332,103.985741 329.174927,103.526306 329.290436,102.884399 
	C329.446381,102.995941 329.446381,103.289963 329.351074,104.014572 
z"/>
<path fill="#F86910" opacity="1.000000" stroke="none" 
	d="
M252.929428,68.782532 
	C252.948273,65.678543 252.415817,62.609451 253.465591,60.241913 
	C255.618958,55.385490 261.971344,54.141567 266.290619,57.152382 
	C270.218170,59.890129 270.966187,67.086899 267.740082,71.097778 
	C264.657043,74.930801 258.635315,75.149231 254.903519,71.511421 
	C254.198349,70.824028 253.692276,69.932388 252.929428,68.782532 
z"/>
<path fill="#F97136" opacity="1.000000" stroke="none" 
	d="
M349.117310,97.007294 
	C349.947296,95.535309 350.618988,94.035728 351.733215,93.548767 
	C352.318909,93.292801 354.034607,94.618225 354.556641,95.594856 
	C354.873383,96.187416 353.908752,98.292892 353.478424,98.305496 
	C352.043304,98.347511 350.589478,97.751625 349.117310,97.007294 
z"/>
</svg>